<svg width="15" height="15" viewBox="0 0 15 15" fill="none" xmlns="http://www.w3.org/2000/svg">
<rect width="15" height="15" fill="#1E1E1E"/>
<g id="Main Navigation">
<path d="M-1172.31 -348.241C-1172.31 -349.346 -1171.42 -350.241 -1170.31 -350.241H158.689C159.794 -350.241 160.689 -349.346 160.689 -348.241V3123.76C160.689 3124.86 159.794 3125.76 158.689 3125.76H-1170.31C-1171.42 3125.76 -1172.31 3124.86 -1172.31 3123.76V-348.241Z" fill="#444444"/>
<path d="M-1170.31 -350.241V-349.241H158.689V-350.241V-351.241H-1170.31V-350.241ZM160.689 -348.241H159.689V3123.76H160.689H161.689V-348.241H160.689ZM158.689 3125.76V3124.76H-1170.31V3125.76V3126.76H158.689V3125.76ZM-1172.31 3123.76H-1171.31V-348.241H-1172.31H-1173.31V3123.76H-1172.31ZM-1170.31 3125.76V3124.76C-1170.86 3124.76 -1171.31 3124.31 -1171.31 3123.76H-1172.31H-1173.31C-1173.31 3125.42 -1171.97 3126.76 -1170.31 3126.76V3125.76ZM160.689 3123.76H159.689C159.689 3124.31 159.242 3124.76 158.689 3124.76V3125.76V3126.76C160.346 3126.76 161.689 3125.42 161.689 3123.76H160.689ZM158.689 -350.241V-349.241C159.242 -349.241 159.689 -348.794 159.689 -348.241H160.689H161.689C161.689 -349.898 160.346 -351.241 158.689 -351.241V-350.241ZM-1170.31 -350.241V-351.241C-1171.97 -351.241 -1173.31 -349.898 -1173.31 -348.241H-1172.31H-1171.31C-1171.31 -348.794 -1170.86 -349.241 -1170.31 -349.241V-350.241Z" fill="white" fill-opacity="0.1"/>
<g id="Dashboard - ">
<rect width="1133" height="744" transform="translate(-1072.31 -223.241)" fill="#F2F2F7"/>
<g id="Content area">
<g id="Main content">
<g id="Scroll area">
<g id="Dashboard">
<g id="OptionA">
<rect x="-718.311" y="-28.2412" width="755" height="198" rx="26" fill="white"/>
<g id="Container">
<g id="Header">
<path id="&#244;&#128;&#133;&#180;" d="M7.47119 14.9414C6.44092 14.9414 5.47412 14.7461 4.5708 14.3555C3.66748 13.9697 2.87402 13.4351 2.19043 12.7515C1.50684 12.0679 0.969727 11.2744 0.579102 10.3711C0.193359 9.46777 0.000488281 8.50098 0.000488281 7.4707C0.000488281 6.44043 0.193359 5.47363 0.579102 4.57031C0.969727 3.66699 1.50684 2.87354 2.19043 2.18994C2.87402 1.50146 3.66748 0.964355 4.5708 0.578613C5.47412 0.192871 6.44092 0 7.47119 0C8.50146 0 9.46826 0.192871 10.3716 0.578613C11.2749 0.964355 12.0684 1.50146 12.752 2.18994C13.4355 2.87354 13.9702 3.66699 14.356 4.57031C14.7466 5.47363 14.9419 6.44043 14.9419 7.4707C14.9419 8.50098 14.7466 9.46777 14.356 10.3711C13.9702 11.2744 13.4355 12.0679 12.752 12.7515C12.0684 13.4351 11.2749 13.9697 10.3716 14.3555C9.46826 14.7461 8.50146 14.9414 7.47119 14.9414ZM7.47119 13.6963C8.33057 13.6963 9.13623 13.5352 9.88818 13.2129C10.6401 12.8906 11.3018 12.4438 11.873 11.8726C12.4443 11.3013 12.8911 10.6396 13.2134 9.8877C13.5356 9.13574 13.6968 8.33008 13.6968 7.4707C13.6968 6.61133 13.5356 5.80566 13.2134 5.05371C12.8911 4.29688 12.4443 3.63525 11.873 3.06885C11.3018 2.49756 10.6401 2.05078 9.88818 1.72852C9.13623 1.40625 8.33057 1.24512 7.47119 1.24512C6.61182 1.24512 5.80615 1.40625 5.0542 1.72852C4.30225 2.05078 3.64062 2.49756 3.06934 3.06885C2.49805 3.63525 2.05127 4.29688 1.729 5.05371C1.40674 5.80566 1.24561 6.61133 1.24561 7.4707C1.24561 8.33008 1.40674 9.13574 1.729 9.8877C2.05127 10.6396 2.49805 11.3013 3.06934 11.8726C3.64062 12.4438 4.30225 12.8906 5.0542 13.2129C5.80615 13.5352 6.61182 13.6963 7.47119 13.6963ZM6.18945 11.5649C6.03809 11.5649 5.91113 11.5161 5.80859 11.4185C5.70605 11.3208 5.65479 11.1987 5.65479 11.0522C5.65479 10.9058 5.70605 10.7837 5.80859 10.686C5.91113 10.5884 6.03809 10.5396 6.18945 10.5396H7.09766V7.17773H6.31396C6.1626 7.17773 6.03564 7.12891 5.93311 7.03125C5.83057 6.93359 5.7793 6.81152 5.7793 6.66504C5.7793 6.51855 5.83057 6.39648 5.93311 6.29883C6.03564 6.20117 6.1626 6.15234 6.31396 6.15234H7.69092C7.87646 6.15234 8.01807 6.21338 8.11572 6.33545C8.21338 6.45264 8.26221 6.61133 8.26221 6.81152V10.5396H9.17041C9.32178 10.5396 9.44873 10.5884 9.55127 10.686C9.65381 10.7837 9.70508 10.9058 9.70508 11.0522C9.70508 11.1987 9.65381 11.3208 9.55127 11.4185C9.44873 11.5161 9.32178 11.5649 9.17041 11.5649H6.18945ZM7.40527 4.9292C7.1416 4.9292 6.91699 4.83643 6.73145 4.65088C6.5459 4.46533 6.45312 4.24072 6.45312 3.97705C6.45312 3.7085 6.5459 3.48145 6.73145 3.2959C6.91699 3.11035 7.1416 3.01758 7.40527 3.01758C7.67383 3.01758 7.89844 3.11035 8.0791 3.2959C8.26465 3.48145 8.35742 3.7085 8.35742 3.97705C8.35742 4.24072 8.26465 4.46533 8.0791 4.65088C7.89844 4.83643 7.67383 4.9292 7.40527 4.9292Z" fill="#0088FF"/>
</g>
</g>
</g>
</g>
</g>
</g>
</g>
</g>
</g>
</svg>
