<svg preserveAspectRatio="none" width="100%" height="100%" overflow="visible" style="display: block;" viewBox="0 0 32 32" fill="none" xmlns="http://www.w3.org/2000/svg">
<g id="Flight attendant male">
<path id="Vector" d="M16 14.4C18.3564 14.4 20.2667 12.4897 20.2667 10.1333C20.2667 7.77692 18.3564 5.86667 16 5.86667C13.6436 5.86667 11.7333 7.77692 11.7333 10.1333C11.7333 12.4897 13.6436 14.4 16 14.4Z" fill="var(--fill-0, black)"/>
<path id="Exclude" d="M12.5332 16L16 19L19.4668 16H19.9463C21.3226 16.0575 22.6241 16.644 23.5781 17.6377C24.5321 18.6314 25.065 19.9555 25.0664 21.333V24.7998H23.4668V25.0664H25.0664V25.5996H6.93359V25.0664H8.5332V24.7998H6.93359V21.333C6.93495 19.9555 7.46793 18.6314 8.42188 17.6377C9.37588 16.644 10.6774 16.0575 12.0537 16H12.5332ZM16 20.5C15.7239 20.5 15.5 20.7239 15.5 21C15.5 21.2761 15.7239 21.5 16 21.5C16.2761 21.5 16.5 21.2761 16.5 21C16.5 20.7239 16.2761 20.5 16 20.5ZM19.7334 19.4668L20 19.8662H21.0664C21.0664 19.9722 21.1087 20.0744 21.1836 20.1494C21.2586 20.2244 21.3607 20.2666 21.4668 20.2666C21.5728 20.2666 21.675 20.2244 21.75 20.1494C21.8248 20.0744 21.8662 19.9722 21.8662 19.8662H22.9336L23.2002 19.4668H22L21.8398 19.707C21.8072 19.6355 21.7546 19.5748 21.6885 19.5322C21.6223 19.4897 21.5454 19.4668 21.4668 19.4668C21.3881 19.4668 21.3113 19.4897 21.2451 19.5322C21.1789 19.5748 21.1264 19.6355 21.0938 19.707L20.9336 19.4668H19.7334Z" fill="var(--fill-0, black)"/>
</g>
</svg>
