<svg preserveAspectRatio="none" width="100%" height="100%" overflow="visible" style="display: block;" viewBox="0 0 40 40" fill="none" xmlns="http://www.w3.org/2000/svg">
<g id="Purser male A">
<path id="Vector" d="M20 18C22.9455 18 25.3333 15.6122 25.3333 12.6667C25.3333 9.72115 22.9455 7.33333 20 7.33333C17.0545 7.33333 14.6667 9.72115 14.6667 12.6667C14.6667 15.6122 17.0545 18 20 18Z" fill="var(--fill-0, black)"/>
<path id="Exclude" d="M15.667 20L20 23.75L24.333 20H24.9336C26.654 20.0719 28.2802 20.8057 29.4727 22.0479C30.6651 23.29 31.3314 24.9451 31.333 26.667V29.667H29.333V30H31.333V30.667H29.333V31.333H31.333V32H8.66699V31.333H10.667V30.667H8.66699V30H10.667V29.667H8.66699V26.667C8.66859 24.9451 9.33491 23.29 10.5273 22.0479C11.7198 20.8057 13.346 20.0719 15.0664 20H15.667ZM20 25.625C19.6548 25.625 19.375 25.9048 19.375 26.25C19.375 26.5952 19.6548 26.875 20 26.875C20.3452 26.875 20.625 26.5952 20.625 26.25C20.625 25.9048 20.3452 25.625 20 25.625ZM24.667 24.333L25 24.833H26.333C26.333 24.9655 26.3859 25.0928 26.4795 25.1865C26.5732 25.2802 26.7005 25.3329 26.833 25.333C26.9656 25.333 27.0928 25.2803 27.1865 25.1865C27.2803 25.0928 27.333 24.9656 27.333 24.833H28.667L29 24.333H27.5L27.2998 24.6338C27.259 24.5443 27.1931 24.4682 27.1104 24.415C27.0277 24.3619 26.9313 24.333 26.833 24.333C26.7348 24.3331 26.6383 24.3619 26.5557 24.415C26.4731 24.4682 26.407 24.5444 26.3662 24.6338L26.167 24.333H24.667Z" fill="var(--fill-0, black)"/>
</g>
</svg>
