<svg preserveAspectRatio="none" width="100%" height="100%" overflow="visible" style="display: block;" viewBox="0 0 70 70" fill="none" xmlns="http://www.w3.org/2000/svg">
<g id="Ring">
<path id="Ellipse 7" d="M70 35C70 54.33 54.33 70 35 70C15.67 70 0 54.33 0 35C0 15.67 15.67 0 35 0C54.33 0 70 15.67 70 35ZM7 35C7 50.464 19.536 63 35 63C50.464 63 63 50.464 63 35C63 19.536 50.464 7 35 7C19.536 7 7 19.536 7 35Z" fill="var(--fill-0, #E5E5EA)"/>
<path id="Ellipse 6" d="M35 3.5C35 1.567 36.5709 -0.0181309 38.4942 0.174848C43.3556 0.662619 48.0747 2.16439 52.3411 4.5979C57.6238 7.6111 62.0302 11.9488 65.126 17.1835C68.2218 22.4183 69.9002 28.3693 69.9957 34.4502C70.0728 39.3613 69.1154 44.2201 67.2009 48.7151C66.4434 50.4935 64.2976 51.1065 62.6037 50.1752V50.1752C60.9098 49.244 60.3142 47.1215 61.0269 45.3247C62.3809 41.9116 63.0546 38.2544 62.9965 34.5602C62.9201 29.6955 61.5774 24.9346 59.1008 20.7468C56.6241 16.5591 53.099 13.0889 48.8728 10.6783C45.6636 8.84779 42.1342 7.67627 38.491 7.21846C36.573 6.97746 35 5.433 35 3.5V3.5Z" fill="var(--fill-0, #0088FF)"/>
</g>
</svg>
