<svg preserveAspectRatio="none" width="100%" height="100%" overflow="visible" style="display: block;" viewBox="0 0 70 70" fill="none" xmlns="http://www.w3.org/2000/svg">
<g id="Ring">
<path id="Ellipse 7" d="M70 35C70 54.33 54.33 70 35 70C15.67 70 0 54.33 0 35C0 15.67 15.67 0 35 0C54.33 0 70 15.67 70 35ZM7 35C7 50.464 19.536 63 35 63C50.464 63 63 50.464 63 35C63 19.536 50.464 7 35 7C19.536 7 7 19.536 7 35Z" fill="var(--fill-0, #E5E5EA)"/>
<path id="Ellipse 6" d="M35 3.5C35 1.567 36.5709 -0.0181252 38.4942 0.174855C41.8918 0.515756 45.2276 1.35269 48.3939 2.66422C52.6403 4.42313 56.4987 7.00121 59.7487 10.2513C62.9988 13.5013 65.5769 17.3597 67.3358 21.6061C69.0947 25.8525 70 30.4037 70 35C70 39.5963 69.0947 44.1475 67.3358 48.3939C65.5769 52.6403 62.9988 56.4987 59.7487 59.7487C56.4987 62.9988 52.6403 65.5769 48.3939 67.3358C45.2276 68.6473 41.8918 69.4842 38.4942 69.8251C36.5708 70.0181 35 68.433 35 66.5V66.5C35 64.567 36.573 63.0225 38.4909 62.7815C40.9685 62.4702 43.3985 61.8282 45.7151 60.8686C49.1122 59.4615 52.1989 57.399 54.799 54.799C57.399 52.199 59.4615 49.1123 60.8686 45.7151C62.2758 42.318 63 38.677 63 35C63 31.323 62.2758 27.682 60.8686 24.2849C59.4615 20.8878 57.399 17.8011 54.799 15.201C52.199 12.601 49.1123 10.5385 45.7151 9.13137C43.3985 8.17179 40.9685 7.52979 38.4909 7.21847C36.573 6.97747 35 5.433 35 3.5V3.5Z" fill="var(--fill-0, #0088FF)"/>
</g>
</svg>
