<svg preserveAspectRatio="none" width="100%" height="100%" overflow="visible" style="display: block;" viewBox="0 0 18.1333 20.8" fill="none" xmlns="http://www.w3.org/2000/svg">
<path id="Vector" d="M18.1333 20V16.5333C18.1321 15.1558 17.5987 13.8319 16.6447 12.8381C15.6907 11.8444 14.3897 11.2575 13.0133 11.2H12.5333L9.06667 17.6L5.6 11.2H5.12C3.74362 11.2575 2.44263 11.8444 1.48861 12.8381C0.534587 13.8319 0.00127553 15.1558 0 16.5333V20H1.6V20.2667H0V20.8H18.1333V20.2667H16.5333V20H18.1333ZM16 15.0667H14.9333C14.9333 15.1728 14.8912 15.2745 14.8162 15.3495C14.7412 15.4245 14.6394 15.4667 14.5333 15.4667C14.4272 15.4667 14.3255 15.4245 14.2505 15.3495C14.1755 15.2745 14.1333 15.1728 14.1333 15.0667H13.0667L12.8 14.6667H14L14.16 14.9067C14.1927 14.8351 14.2452 14.7744 14.3114 14.7319C14.3776 14.6893 14.4546 14.6667 14.5333 14.6667C14.612 14.6667 14.689 14.6893 14.7552 14.7319C14.8214 14.7744 14.874 14.8351 14.9067 14.9067L15.0667 14.6667H16.2667L16 15.0667ZM9.06667 9.6C10.1972 9.59669 11.2806 9.14611 12.08 8.34667C12.8794 7.54723 13.33 6.46391 13.3333 5.33333C13.3338 4.79525 13.2344 4.26175 13.04 3.76L4.93333 4.26667C4.84801 4.61591 4.80326 4.97383 4.8 5.33333C4.80331 6.46391 5.25389 7.54723 6.05333 8.34667C6.85277 9.14611 7.93609 9.59669 9.06667 9.6V9.6ZM13.3333 0H4.8V3.46667L13.3333 2.93333V0Z" fill="var(--fill-0, black)"/>
</svg>
