<svg preserveAspectRatio="none" width="100%" height="100%" overflow="visible" style="display: block;" viewBox="0 0 24 19.7333" fill="none" xmlns="http://www.w3.org/2000/svg">
<path id="Vector" d="M8.8 11.2H10.4L5.33333 19.7333H6.93333L16 11.2H20.8C20.8065 11.1993 20.8129 11.1983 20.8192 11.1968C22.5888 11.1648 24 10.5824 24 9.86667C24 9.15093 22.5888 8.56853 20.8192 8.53653C20.8129 8.53506 20.8065 8.53399 20.8 8.53333H16L6.93333 0H5.33333L10.4 8.53333H8.8C7.7504 8.56347 4.61147 9.16 3.73333 9.33333L1.33333 6.66667H0L1.86667 9.86667L0 13.0667H1.33333L3.73333 10.4C4.608 10.5728 7.74933 11.1699 8.8 11.2Z" fill="var(--fill-0, black)"/>
</svg>
