<svg preserveAspectRatio="none" width="100%" height="100%" overflow="visible" style="display: block;" viewBox="0 0 18.1333 9.6" fill="none" xmlns="http://www.w3.org/2000/svg">
<path id="Vector" d="M18.1333 5.33333C18.1321 3.95575 17.5987 2.6319 16.6447 1.63813C15.6907 0.644359 14.3897 0.0574789 13.0133 0L10.9333 4.53333L9.70667 1.4672L9.7064 1.46613C9.99174 1.34166 10.2346 1.13666 10.4051 0.876241C10.5757 0.615823 10.6666 0.311304 10.6667 0H7.46667C7.46672 0.311379 7.55762 0.615976 7.72824 0.87645C7.89886 1.13692 8.14177 1.34195 8.4272 1.4664L8.42667 1.4672L7.2 4.53333L5.12 0C3.74362 0.0574789 2.44263 0.644359 1.48861 1.63813C0.534587 2.6319 0.00127553 3.95575 0 5.33333V8.8H1.6V9.06667H0V9.6H18.1333V9.06667H16.5333V8.8H18.1333V5.33333ZM16 3.86667H14.9333C14.9333 3.97275 14.8912 4.0745 14.8162 4.14951C14.7412 4.22452 14.6394 4.26667 14.5333 4.26667C14.4272 4.26667 14.3255 4.22452 14.2505 4.14951C14.1755 4.0745 14.1333 3.97275 14.1333 3.86667H13.0667L12.8 3.46667H14L14.16 3.70667C14.1927 3.63509 14.2452 3.57441 14.3114 3.53187C14.3776 3.48933 14.4546 3.46671 14.5333 3.46671C14.612 3.46671 14.689 3.48933 14.7552 3.53187C14.8214 3.57441 14.874 3.63509 14.9067 3.70667L15.0667 3.46667H16.2667L16 3.86667Z" fill="var(--fill-0, black)"/>
</svg>
