<svg preserveAspectRatio="none" width="100%" height="100%" overflow="visible" style="display: block;" viewBox="0 0 8.53334 14.5333" fill="none" xmlns="http://www.w3.org/2000/svg">
<path id="Vector" d="M4.26667 9.6C5.39724 9.59669 6.48056 9.14611 7.28 8.34667C8.07944 7.54723 8.53003 6.46391 8.53333 5.33333C8.53384 4.79525 8.43438 4.26175 8.24 3.76L0.133333 4.26667C0.0480056 4.61591 0.00326526 4.97383 0 5.33333C0.00330651 6.46391 0.453891 7.54723 1.25333 8.34667C2.05277 9.14611 3.13609 9.59669 4.26667 9.6V9.6ZM8.53333 0H0V3.46667L8.53333 2.93333V0ZM2.93333 11.2L3.70667 11.92L3.06667 13.4667L3.86667 14.2667L4.21333 12.4533C4.26667 12.72 4.32 12.9867 4.4 13.4667L5.33333 14.5333L5.46667 13.2C5.25333 12.7733 5.04 12.2667 4.88 11.8667L5.6 11.2H2.93333Z" fill="var(--fill-0, black)"/>
</svg>
