<svg preserveAspectRatio="none" width="100%" height="100%" overflow="visible" style="display: block;" viewBox="0 0 18 18" fill="none" xmlns="http://www.w3.org/2000/svg">
<path id="Vector" d="M3.03147 6.94898L7.02177 8.6358L6.90834 8.87241C6.45672 8.76773 5.80331 8.51585 4.9481 8.11568L4.84228 8.31848C5.39315 8.60634 5.76295 8.79279 5.95056 8.88002C6.41854 9.10465 6.88977 9.21478 7.36539 9.21478C8.75293 9.21478 9.68889 8.52021 10.1689 7.13215C10.9837 6.98058 12.0342 6.90427 13.3236 6.90427C14.3773 6.90427 15.454 6.96642 16.5492 7.08963L16.2339 7.47455C15.5172 7.38077 14.71 7.33498 13.8068 7.33498C13.0465 7.33498 12.5033 7.34698 12.1815 7.37095L12.032 7.68607C12.5774 7.66207 13.1098 7.65227 13.6323 7.65227C14.5562 7.65227 15.3482 7.68389 16.0049 7.74713L15.6885 8.15276C15.5642 8.14622 15.2958 8.13096 14.8791 8.10696C14.4864 8.0906 13.9301 8.08188 13.2101 8.08188C12.7651 8.08188 12.3015 8.09714 11.8215 8.12658L11.6808 8.44169C12.2316 8.40136 12.8502 8.37954 13.5341 8.37954C14.2562 8.37954 14.8998 8.39698 15.4682 8.43298L15.1507 8.82987C13.7446 8.74045 12.5153 8.76771 11.4615 8.90838L11.3121 9.19842C12.1084 9.12101 12.9342 9.08285 13.7894 9.08285C14.1581 9.08285 14.5377 9.09157 14.9228 9.11011L14.589 9.52118C14.0392 9.51136 13.6977 9.50482 13.5701 9.50482C11.9535 9.50482 10.6281 9.79378 9.59727 10.376C10.0249 10.8013 10.5878 11.1807 11.2837 11.5089C12.1411 11.9004 13.0018 12.0967 13.869 12.0967C13.9628 12.0967 14.133 12.0901 14.3773 12.0792L13.641 12.8163L13.4468 12.765C11.5717 12.2733 10.1165 11.8153 9.07911 11.3933C8.24026 11.0128 6.92469 10.3008 5.13245 9.25948C3.65545 8.41008 2.44026 7.83436 1.48467 7.53668L1.60793 7.08963C1.87301 7.12997 2.27334 7.24664 2.81222 7.44073L3.03147 6.94896V6.94898ZM8.93837 0.938812C6.77631 0.938812 4.91317 1.70754 3.34891 3.24169C2.59296 3.98423 2.00062 4.86853 1.57303 5.89022C1.14541 6.91298 0.931616 7.95649 0.931616 9.0207C0.931616 11.2298 1.71921 13.1271 3.29547 14.7136C4.85428 16.2837 6.74908 17.0688 8.98204 17.0688C11.2554 17.0688 13.1807 16.2663 14.757 14.6623C16.2972 13.0933 17.0685 11.2189 17.0685 9.04031C17.0685 7.96301 16.8601 6.91734 16.4445 5.9033C16.0278 4.88925 15.4518 4.01803 14.7122 3.28638C13.1185 1.72059 11.1943 0.938789 8.93842 0.938789L8.93837 0.938812ZM9.14891 0C11.5466 0 13.6192 0.875578 15.3722 2.62563C17.124 4.38223 18 6.51501 18 9.02072C18 11.4577 17.1415 13.5534 15.4234 15.3035C13.6606 17.1015 11.5138 18 8.98201 18C6.48616 18 4.37102 17.1244 2.63657 15.3744C0.878132 13.6047 0 11.4893 0 9.02944C0 7.8311 0.239976 6.65459 0.721054 5.50751C1.20103 4.35933 1.8577 3.38562 2.69001 2.58312C4.48228 0.86032 6.63559 0 9.14889 0H9.14891Z" fill="var(--fill-0, black)"/>
</svg>
