<svg preserveAspectRatio="none" width="100%" height="100%" overflow="visible" style="display: block;" viewBox="0 0 22.6667 26" fill="none" xmlns="http://www.w3.org/2000/svg">
<path id="Vector" d="M22.6667 25V20.6667C22.6651 18.9447 21.9984 17.2899 20.8059 16.0477C19.6134 14.8054 17.9871 14.0718 16.2667 14H15.6667L11.3333 22L7 14H6.4C4.67952 14.0718 3.05328 14.8054 1.86076 16.0477C0.668234 17.2899 0.00159441 18.9447 0 20.6667V25H2V25.3333H0V26H22.6667V25.3333H20.6667V25H22.6667ZM20 18.8333H18.6667C18.6667 18.9659 18.614 19.0931 18.5202 19.1869C18.4265 19.2807 18.2993 19.3333 18.1667 19.3333C18.0341 19.3333 17.9069 19.2807 17.8131 19.1869C17.7193 19.0931 17.6667 18.9659 17.6667 18.8333H16.3333L16 18.3333H17.5L17.7 18.6333C17.7408 18.5439 17.8066 18.468 17.8893 18.4148C17.972 18.3617 18.0683 18.3334 18.1667 18.3334C18.265 18.3334 18.3613 18.3617 18.444 18.4148C18.5268 18.468 18.5925 18.5439 18.6333 18.6333L18.8333 18.3333H20.3333L20 18.8333ZM11.3333 12C12.7465 11.9959 14.1007 11.4326 15.1 10.4333C16.0993 9.43404 16.6625 8.07988 16.6667 6.66667C16.6673 5.99406 16.543 5.32719 16.3 4.7L6.16667 5.33333C6.06001 5.76989 6.00408 6.21729 6 6.66667C6.00413 8.07988 6.56736 9.43404 7.56666 10.4333C8.56596 11.4326 9.92012 11.9959 11.3333 12V12ZM16.6667 0H6V4.33333L16.6667 3.66667V0Z" fill="var(--fill-0, black)"/>
</svg>
