<svg xmlns="http://www.w3.org/2000/svg" viewBox="47.5293 455.241 16.9414 16.942000000000007"><path d="M56 471.183C54.9697 471.183 54.0029 470.987 53.0996 470.597C52.1963 470.211 51.4028 469.676 50.7192 468.993C50.0356 468.309 49.4985 467.516 49.1079 466.612C48.7222 465.709 48.5293 464.742 48.5293 463.712C48.5293 462.682 48.7222 461.715 49.1079 460.812C49.4985 459.908 50.0356 459.115 50.7192 458.431C51.4028 457.743 52.1963 457.206 53.0996 456.82C54.0029 456.434 54.9697 456.241 56 456.241C57.0303 456.241 57.9971 456.434 58.9004 456.82C59.8037 457.206 60.5972 457.743 61.2808 458.431C61.9644 459.115 62.499 459.908 62.8848 460.812C63.2754 461.715 63.4707 462.682 63.4707 463.712C63.4707 464.742 63.2754 465.709 62.8848 466.612C62.499 467.516 61.9644 468.309 61.2808 468.993C60.5972 469.676 59.8037 470.211 58.9004 470.597C57.9971 470.987 57.0303 471.183 56 471.183ZM56 469.938C56.8594 469.938 57.665 469.776 58.417 469.454C59.1689 469.132 59.8306 468.685 60.4019 468.114C60.9731 467.542 61.4199 466.881 61.7422 466.129C62.0645 465.377 62.2256 464.571 62.2256 463.712C62.2256 462.853 62.0645 462.047 61.7422 461.295C61.4199 460.538 60.9731 459.876 60.4019 459.31C59.8306 458.739 59.1689 458.292 58.417 457.97C57.665 457.647 56.8594 457.486 56 457.486C55.1406 457.486 54.335 457.647 53.583 457.97C52.8311 458.292 52.1694 458.739 51.5981 459.31C51.0269 459.876 50.5801 460.538 50.2578 461.295C49.9355 462.047 49.7744 462.853 49.7744 463.712C49.7744 464.571 49.9355 465.377 50.2578 466.129C50.5801 466.881 51.0269 467.542 51.5981 468.114C52.1694 468.685 52.8311 469.132 53.583 469.454C54.335 469.776 55.1406 469.938 56 469.938ZM61.0098 468.539C60.5654 468.973 60.043 469.344 59.4424 469.652C58.8467 469.959 58.2437 470.194 57.6333 470.355C57.0229 470.521 56.4785 470.604 56 470.604C55.5264 470.604 54.9819 470.521 54.3667 470.355C53.7563 470.194 53.1509 469.959 52.5503 469.652C51.9497 469.344 51.4297 468.973 50.9902 468.539L51.0122 468.451C51.1343 468.094 51.4199 467.743 51.8691 467.396C52.3184 467.049 52.8945 466.764 53.5977 466.539C54.3057 466.314 55.1064 466.202 56 466.202C56.8984 466.202 57.6992 466.314 58.4023 466.539C59.1104 466.764 59.6865 467.049 60.1309 467.396C60.5801 467.743 60.8657 468.097 60.9878 468.458L61.0098 468.539ZM56 464.957C55.5312 464.952 55.1064 464.83 54.7256 464.591C54.3496 464.347 54.0493 464.017 53.8247 463.602C53.605 463.187 53.4927 462.718 53.4878 462.196C53.4829 461.703 53.5928 461.251 53.8174 460.841C54.042 460.431 54.3447 460.104 54.7256 459.859C55.1064 459.61 55.5312 459.486 56 459.486C56.4688 459.486 56.8911 459.61 57.2671 459.859C57.6479 460.104 57.9507 460.431 58.1753 460.841C58.3999 461.251 58.5122 461.703 58.5122 462.196C58.5122 462.718 58.3999 463.189 58.1753 463.609C57.9556 464.029 57.6553 464.361 57.2744 464.605C56.8936 464.845 56.4688 464.962 56 464.957Z" fill="currentColor"/></svg>