<svg xmlns="http://www.w3.org/2000/svg" viewBox="574.0 37.1338 26.0 21.7333"><path d="M583.8 49.3338H585.4L580.333 57.8671H581.933L591 49.3338H595.8C595.806 49.3331 595.813 49.3321 595.819 49.3306C597.589 49.2986 599 48.7162 599 48.0005C599 47.2847 597.589 46.7023 595.819 46.6703C595.813 46.6688 595.806 46.6678 595.8 46.6671H591L581.933 38.1338H580.333L585.4 46.6671H583.8C582.75 46.6973 579.611 47.2938 578.733 47.4671L576.333 44.8005H575L576.867 48.0005L575 51.2005H576.333L578.733 48.5338C579.608 48.7066 582.749 49.3037 583.8 49.3338Z" fill="currentColor"/></svg>