<svg xmlns="http://www.w3.org/2000/svg" viewBox="326.117 114.466 17.887 15.048999999999992"><path d="M336.505 128.515C336.201 128.515 335.954 128.421 335.766 128.232C335.578 128.044 335.484 127.812 335.484 127.535C335.484 127.38 335.512 127.242 335.567 127.12C335.628 126.998 335.705 126.89 335.799 126.796L337.659 124.92L340.838 121.99L337.659 119.06L335.799 117.184C335.705 117.09 335.628 116.982 335.567 116.86C335.512 116.733 335.484 116.595 335.484 116.445C335.484 116.169 335.578 115.936 335.766 115.748C335.954 115.56 336.201 115.466 336.505 115.466C336.632 115.466 336.757 115.493 336.878 115.549C337.006 115.599 337.127 115.682 337.244 115.798L342.681 121.227C342.896 121.437 343.004 121.691 343.004 121.99C343.004 122.289 342.896 122.544 342.681 122.754L337.227 128.191C337.011 128.407 336.771 128.515 336.505 128.515ZM328.171 123.028C327.855 123.028 327.601 122.934 327.407 122.746C327.214 122.552 327.117 122.3 327.117 121.99C327.117 121.686 327.214 121.44 327.407 121.251C327.601 121.058 327.855 120.961 328.171 120.961H337.966L340.987 121.127C341.258 121.144 341.474 121.229 341.635 121.384C341.801 121.534 341.884 121.736 341.884 121.99C341.884 122.245 341.801 122.45 341.635 122.604C341.474 122.754 341.258 122.837 340.987 122.854L337.966 123.028H328.171Z" fill="currentColor"/></svg>