<svg xmlns="http://www.w3.org/2000/svg" viewBox="704.156 286.495 13.688000000000102 13.396999999999991"><path d="M709.697 298.892C709.348 298.892 709.049 298.737 708.8 298.427L705.422 294.136C705.328 294.02 705.259 293.909 705.214 293.804C705.176 293.693 705.156 293.585 705.156 293.48C705.156 293.22 705.239 293.01 705.405 292.849C705.571 292.689 705.782 292.608 706.036 292.608C706.335 292.608 706.587 292.741 706.792 293.007L709.664 296.792L715.192 287.968C715.308 287.791 715.424 287.669 715.541 287.603C715.657 287.531 715.803 287.495 715.98 287.495C716.235 287.495 716.443 287.575 716.603 287.736C716.764 287.891 716.844 288.093 716.844 288.342C716.844 288.441 716.827 288.544 716.794 288.649C716.761 288.754 716.703 288.868 716.62 288.989L710.585 298.419C710.375 298.734 710.079 298.892 709.697 298.892Z" fill="currentColor"/></svg>