<svg xmlns="http://www.w3.org/2000/svg" viewBox="986.711 52.042 20.57899999999995 20.3613"><path d="M994.701 71.4033C994.258 71.4033 993.882 71.2096 993.572 70.8223L988.052 63.999C987.93 63.8551 987.841 63.714 987.786 63.5757C987.736 63.4373 987.711 63.299 987.711 63.1606C987.711 62.8397 987.817 62.5768 988.027 62.3721C988.237 62.1618 988.506 62.0566 988.832 62.0566C989.214 62.0566 989.535 62.2282 989.795 62.5713L994.659 68.6973L1004.2 53.6313C1004.34 53.4155 1004.48 53.2633 1004.63 53.1748C1004.78 53.0863 1004.96 53.042 1005.18 53.042C1005.52 53.042 1005.78 53.1416 1005.98 53.3408C1006.19 53.54 1006.29 53.8029 1006.29 54.1294C1006.29 54.2511 1006.27 54.3784 1006.22 54.5112C1006.18 54.644 1006.11 54.7852 1006.01 54.9346L995.813 70.814C995.686 71.0076 995.528 71.1543 995.34 71.2539C995.152 71.3535 994.939 71.4033 994.701 71.4033Z" fill="currentColor"/></svg>