<svg xmlns="http://www.w3.org/2000/svg" viewBox="570.849 641.802 10.117999999999938 16.409999999999968"><path d="M579.967 650.007C579.967 650.112 579.945 650.212 579.901 650.306C579.862 650.394 579.804 650.477 579.727 650.555L573.152 656.988C573.003 657.137 572.82 657.212 572.604 657.212C572.466 657.212 572.339 657.179 572.223 657.112C572.106 657.046 572.015 656.955 571.949 656.838C571.882 656.728 571.849 656.6 571.849 656.457C571.849 656.252 571.921 656.072 572.065 655.917L578.108 650.007L572.065 644.097C571.921 643.942 571.849 643.762 571.849 643.557C571.849 643.413 571.882 643.286 571.949 643.175C572.015 643.059 572.106 642.968 572.223 642.901C572.339 642.835 572.466 642.802 572.604 642.802C572.82 642.802 573.003 642.874 573.152 643.018L579.727 649.459C579.804 649.536 579.862 649.622 579.901 649.716C579.945 649.805 579.967 649.902 579.967 650.007Z" fill="currentColor"/></svg>