<svg xmlns="http://www.w3.org/2000/svg" viewBox="1071.29 192.616 16.420000000000073 10.117999999999995"><path d="M1072.51 200.439L1078.94 193.865C1079.09 193.699 1079.28 193.616 1079.5 193.616C1079.61 193.616 1079.7 193.638 1079.8 193.682C1079.9 193.726 1079.98 193.787 1080.06 193.865L1086.48 200.439C1086.63 200.583 1086.71 200.763 1086.71 200.979C1086.71 201.122 1086.67 201.252 1086.61 201.369C1086.54 201.479 1086.45 201.568 1086.33 201.634C1086.22 201.701 1086.09 201.734 1085.95 201.734C1085.73 201.734 1085.55 201.662 1085.41 201.518L1079.05 195.027H1079.94L1073.58 201.518C1073.45 201.662 1073.27 201.734 1073.04 201.734C1072.9 201.734 1072.77 201.701 1072.65 201.634C1072.54 201.568 1072.45 201.479 1072.39 201.369C1072.32 201.252 1072.29 201.122 1072.29 200.979C1072.29 200.873 1072.31 200.774 1072.34 200.68C1072.38 200.586 1072.44 200.505 1072.51 200.439Z" fill="currentColor"/></svg>