<svg xmlns="http://www.w3.org/2000/svg" viewBox="1071.29 506.313 16.420000000000073 10.118000000000052"><path d="M1079.5 515.431C1079.29 515.431 1079.1 515.351 1078.94 515.19L1072.51 508.616C1072.44 508.544 1072.38 508.464 1072.34 508.375C1072.31 508.281 1072.29 508.182 1072.29 508.077C1072.29 507.933 1072.32 507.803 1072.39 507.687C1072.45 507.57 1072.54 507.479 1072.65 507.413C1072.77 507.346 1072.9 507.313 1073.04 507.313C1073.25 507.313 1073.43 507.385 1073.58 507.529L1079.94 514.028H1079.05L1085.41 507.529C1085.57 507.385 1085.74 507.313 1085.95 507.313C1086.09 507.313 1086.22 507.346 1086.33 507.413C1086.45 507.479 1086.54 507.57 1086.61 507.687C1086.67 507.803 1086.71 507.933 1086.71 508.077C1086.71 508.281 1086.63 508.458 1086.48 508.608L1080.06 515.19C1079.98 515.268 1079.9 515.329 1079.8 515.373C1079.7 515.412 1079.61 515.431 1079.5 515.431Z" fill="currentColor"/></svg>