<svg xmlns="http://www.w3.org/2000/svg" viewBox="38.9456 218.95 26.1027 24.105000000000018"><path d="M53 224.864C53.238 224.864 53.4399 224.95 53.606 225.122C53.7775 225.288 53.8633 225.49 53.8633 225.728V233.082L52.8423 229.928L56.3452 234.692C56.5112 234.914 56.5832 235.143 56.561 235.381C56.5444 235.614 56.4393 235.796 56.2456 235.929C56.0243 236.079 55.7946 236.137 55.5566 236.104C55.3187 236.07 55.1112 235.932 54.9341 235.688L52.394 232.343C52.3055 232.227 52.2391 232.114 52.1948 232.003C52.1561 231.887 52.1367 231.765 52.1367 231.638V225.728C52.1367 225.49 52.2197 225.288 52.3857 225.122C52.5573 224.95 52.762 224.864 53 224.864ZM40.7065 228.857H45.7783C46.0273 228.857 46.2127 228.915 46.3345 229.031C46.4618 229.142 46.5226 229.286 46.5171 229.463C46.5171 229.64 46.4479 229.823 46.3096 230.011L43.811 233.456C43.6561 233.682 43.4652 233.796 43.2383 233.796C43.0169 233.796 42.826 233.682 42.6655 233.456L40.167 230.019C40.0286 229.825 39.9567 229.64 39.9512 229.463C39.9456 229.286 40.0065 229.142 40.1338 229.031C40.2611 228.915 40.452 228.857 40.7065 228.857ZM64.0483 231.007C64.0483 232.224 63.863 233.386 63.4922 234.493C63.1214 235.594 62.5957 236.604 61.915 237.523C61.2399 238.447 60.4403 239.247 59.5161 239.922C58.5975 240.603 57.5876 241.128 56.4863 241.499C55.3851 241.87 54.223 242.055 53 242.055C51.8379 242.055 50.7228 241.881 49.6548 241.532C48.5868 241.184 47.599 240.686 46.6914 240.038C45.7839 239.391 44.9953 238.624 44.3257 237.739C44.0822 237.462 43.9743 237.169 44.002 236.859C44.0352 236.549 44.1707 236.306 44.4087 236.128C44.6632 235.929 44.9316 235.863 45.2139 235.929C45.5016 235.99 45.7562 236.139 45.9775 236.377C46.5143 237.091 47.1452 237.711 47.8701 238.237C48.5951 238.768 49.3892 239.178 50.2524 239.465C51.1213 239.753 52.0371 239.897 53 239.897C53.985 239.897 54.9202 239.748 55.8057 239.449C56.6966 239.15 57.5129 238.727 58.2544 238.179C58.9959 237.636 59.6379 236.994 60.1802 236.253C60.7225 235.511 61.1431 234.698 61.4419 233.812C61.7407 232.922 61.8901 231.986 61.8901 231.007C61.8901 230.022 61.7407 229.087 61.4419 228.201C61.1431 227.31 60.7225 226.494 60.1802 225.752C59.6379 225.011 58.9959 224.369 58.2544 223.827C57.5129 223.279 56.6966 222.855 55.8057 222.557C54.9202 222.258 53.985 222.108 53 222.108C52.015 222.108 51.077 222.258 50.186 222.557C49.3006 222.855 48.4871 223.279 47.7456 223.827C47.0041 224.369 46.3594 225.011 45.8115 225.752C45.2692 226.494 44.8486 227.31 44.5498 228.201C44.251 229.092 44.1016 230.03 44.1016 231.015C44.1016 231.314 43.9937 231.569 43.7778 231.779C43.5675 231.984 43.3158 232.086 43.0225 232.086C42.7292 232.086 42.4774 231.984 42.2671 231.779C42.0568 231.574 41.9517 231.322 41.9517 231.023C41.9517 229.8 42.137 228.636 42.5078 227.529C42.8841 226.422 43.4098 225.407 44.085 224.482C44.7601 223.558 45.557 222.759 46.4756 222.083C47.3997 221.408 48.4124 220.885 49.5137 220.515C50.6149 220.138 51.777 219.95 53 219.95C54.223 219.95 55.3851 220.138 56.4863 220.515C57.5876 220.885 58.5975 221.408 59.5161 222.083C60.4403 222.759 61.2399 223.558 61.915 224.482C62.5957 225.401 63.1214 226.414 63.4922 227.521C63.863 228.622 64.0483 229.784 64.0483 231.007Z" fill="currentColor"/></svg>