<svg xmlns="http://www.w3.org/2000/svg" viewBox="39.12 220.191 25.687600000000003 23.62299999999999"><path d="M53 225.839C53.2158 225.839 53.3984 225.917 53.5479 226.072C53.7028 226.221 53.7803 226.404 53.7803 226.62V233.758L52.9751 231.276L56.3369 235.842C56.4919 236.047 56.5583 236.254 56.5361 236.464C56.5195 236.675 56.4255 236.841 56.2539 236.962C56.0602 237.101 55.8527 237.156 55.6313 237.128C55.4155 237.095 55.2246 236.968 55.0586 236.747L52.4604 233.327C52.3774 233.216 52.3166 233.108 52.2778 233.003C52.2391 232.898 52.2197 232.782 52.2197 232.654V226.62C52.2197 226.404 52.2944 226.221 52.4438 226.072C52.5988 225.917 52.7842 225.839 53 225.839ZM40.8062 229.998H45.6372C45.8586 229.998 46.0273 230.045 46.1436 230.139C46.2598 230.233 46.3151 230.355 46.3096 230.504C46.3096 230.654 46.2459 230.817 46.1187 230.994L43.7612 234.356C43.6063 234.577 43.4264 234.691 43.2217 234.696C43.0169 234.696 42.8371 234.583 42.6821 234.356L40.3247 231.002C40.1974 230.825 40.131 230.662 40.1255 230.513C40.12 230.358 40.1753 230.233 40.2915 230.139C40.4077 230.045 40.5793 229.998 40.8062 229.998ZM63.8076 232.007C63.8076 233.197 63.625 234.334 63.2598 235.418C62.9001 236.498 62.3882 237.485 61.7241 238.382C61.0601 239.284 60.277 240.067 59.375 240.731C58.4785 241.395 57.4907 241.907 56.4116 242.267C55.3325 242.632 54.1953 242.814 53 242.814C51.766 242.814 50.5955 242.621 49.4888 242.233C48.382 241.846 47.3721 241.298 46.459 240.59C45.5459 239.887 44.7656 239.065 44.1182 238.125C43.9688 237.92 43.9134 237.707 43.9521 237.485C43.9964 237.258 44.1099 237.09 44.2925 236.979C44.4806 236.863 44.6743 236.832 44.8735 236.888C45.0728 236.938 45.2415 237.054 45.3799 237.236C45.9277 238.044 46.5918 238.75 47.3721 239.353C48.1579 239.962 49.0267 240.432 49.9785 240.764C50.9303 241.102 51.9375 241.271 53 241.271C54.0238 241.271 54.9977 241.113 55.9219 240.797C56.8516 240.487 57.701 240.048 58.4702 239.478C59.245 238.913 59.9146 238.246 60.479 237.477C61.0435 236.702 61.4806 235.853 61.7905 234.929C62.106 234.005 62.2637 233.031 62.2637 232.007C62.2637 230.983 62.106 230.009 61.7905 229.085C61.4806 228.155 61.0435 227.306 60.479 226.537C59.9146 225.762 59.245 225.092 58.4702 224.528C57.701 223.958 56.8516 223.518 55.9219 223.208C54.9977 222.898 54.0238 222.743 53 222.743C51.9762 222.743 50.9995 222.898 50.0698 223.208C49.1457 223.518 48.2962 223.958 47.5215 224.528C46.7523 225.092 46.0827 225.762 45.5127 226.537C44.9482 227.306 44.5111 228.155 44.2012 229.085C43.8913 230.009 43.7363 230.983 43.7363 232.007C43.7363 232.223 43.6589 232.405 43.5039 232.555C43.349 232.704 43.1663 232.779 42.9561 232.779C42.7513 232.779 42.5715 232.707 42.4165 232.563C42.2671 232.414 42.1924 232.231 42.1924 232.015C42.1924 230.82 42.375 229.683 42.7402 228.604C43.1055 227.519 43.6174 226.526 44.2759 225.624C44.9399 224.722 45.7202 223.941 46.6167 223.283C47.5187 222.619 48.5093 222.104 49.5884 221.739C50.6675 221.374 51.8047 221.191 53 221.191C54.1953 221.191 55.3325 221.374 56.4116 221.739C57.4907 222.104 58.4785 222.619 59.375 223.283C60.277 223.941 61.0601 224.722 61.7241 225.624C62.3882 226.526 62.9001 227.516 63.2598 228.595C63.625 229.674 63.8076 230.812 63.8076 232.007Z" fill="currentColor"/></svg>