<svg xmlns="http://www.w3.org/2000/svg" viewBox="41.6406 113.154 22.710500000000003 22.013000000000005"><path d="M45.4297 128.672C45.4297 128.904 45.3688 129.117 45.2471 129.311C45.1309 129.505 44.9731 129.662 44.7739 129.784C44.5802 129.9 44.3672 129.958 44.1348 129.958C43.7751 129.958 43.4707 129.831 43.2217 129.577C42.9727 129.322 42.8481 129.021 42.8481 128.672C42.8481 128.318 42.9727 128.013 43.2217 127.759C43.4707 127.504 43.7751 127.377 44.1348 127.377C44.5 127.377 44.8071 127.504 45.0562 127.759C45.3052 128.008 45.4297 128.312 45.4297 128.672ZM45.4297 132.88C45.4297 133.113 45.3688 133.326 45.2471 133.52C45.1309 133.719 44.9731 133.876 44.7739 133.993C44.5802 134.109 44.3672 134.167 44.1348 134.167C43.8968 134.167 43.681 134.109 43.4873 133.993C43.2936 133.876 43.1387 133.719 43.0225 133.52C42.9062 133.326 42.8481 133.113 42.8481 132.88C42.8481 132.521 42.9727 132.214 43.2217 131.959C43.4707 131.704 43.7751 131.577 44.1348 131.577C44.5 131.577 44.8071 131.702 45.0562 131.951C45.3052 132.205 45.4297 132.515 45.4297 132.88ZM62.9277 128.672C62.9277 128.932 62.8337 129.151 62.6455 129.328C62.4574 129.499 62.2249 129.585 61.9482 129.585H47.6792C47.397 129.585 47.1618 129.499 46.9736 129.328C46.791 129.151 46.6997 128.932 46.6997 128.672C46.6997 128.412 46.791 128.196 46.9736 128.024C47.1618 127.847 47.397 127.759 47.6792 127.759H61.9482C62.2249 127.759 62.4574 127.847 62.6455 128.024C62.8337 128.196 62.9277 128.412 62.9277 128.672ZM62.9277 132.88C62.9277 133.14 62.8337 133.356 62.6455 133.528C62.4574 133.699 62.2249 133.785 61.9482 133.785H47.6792C47.397 133.785 47.1618 133.699 46.9736 133.528C46.791 133.356 46.6997 133.14 46.6997 132.88C46.6997 132.62 46.791 132.402 46.9736 132.225C47.1618 132.053 47.397 131.967 47.6792 131.967H61.9482C62.2249 131.967 62.4574 132.053 62.6455 132.225C62.8337 132.402 62.9277 132.62 62.9277 132.88ZM45.7783 114.154H60.2134C61.3257 114.154 62.1253 114.417 62.6123 114.942C63.1048 115.468 63.3511 116.273 63.3511 117.358V122.139C63.3511 123.224 63.1048 124.032 62.6123 124.563C62.1253 125.089 61.3257 125.352 60.2134 125.352H45.7783C44.6605 125.352 43.8581 125.089 43.3711 124.563C42.8841 124.032 42.6406 123.224 42.6406 122.139V117.358C42.6406 116.273 42.8841 115.468 43.3711 114.942C43.8581 114.417 44.6605 114.154 45.7783 114.154ZM44.7324 122.189C44.7324 122.626 44.8265 122.953 45.0146 123.168C45.2028 123.379 45.5127 123.484 45.9443 123.484H60.0474C60.479 123.484 60.7889 123.379 60.9771 123.168C61.1652 122.953 61.2593 122.626 61.2593 122.189V117.308C61.2593 116.871 61.1652 116.547 60.9771 116.337C60.7889 116.121 60.479 116.013 60.0474 116.013H45.9443C45.5127 116.013 45.2028 116.121 45.0146 116.337C44.8265 116.547 44.7324 116.871 44.7324 117.308V122.189Z" fill="currentColor"/></svg>