<svg xmlns="http://www.w3.org/2000/svg" viewBox="563.156 532.43 17.489000000000033 5.146000000000072"><path d="M565.733 536.576C565.44 536.576 565.174 536.507 564.936 536.368C564.698 536.224 564.507 536.033 564.363 535.795C564.225 535.557 564.156 535.295 564.156 535.007C564.156 534.714 564.225 534.448 564.363 534.21C564.507 533.972 564.698 533.784 564.936 533.646C565.174 533.502 565.44 533.43 565.733 533.43C566.021 533.43 566.284 533.502 566.521 533.646C566.759 533.784 566.948 533.972 567.086 534.21C567.23 534.448 567.302 534.714 567.302 535.007C567.302 535.295 567.23 535.557 567.086 535.795C566.948 536.033 566.759 536.224 566.521 536.368C566.284 536.507 566.021 536.576 565.733 536.576ZM571.9 536.576C571.607 536.576 571.341 536.507 571.104 536.368C570.866 536.224 570.675 536.033 570.531 535.795C570.392 535.557 570.323 535.295 570.323 535.007C570.323 534.714 570.392 534.448 570.531 534.21C570.675 533.972 570.866 533.784 571.104 533.646C571.341 533.502 571.607 533.43 571.9 533.43C572.188 533.43 572.451 533.502 572.689 533.646C572.927 533.784 573.115 533.972 573.253 534.21C573.397 534.448 573.469 534.714 573.469 535.007C573.469 535.295 573.397 535.557 573.253 535.795C573.115 536.033 572.927 536.224 572.689 536.368C572.451 536.507 572.188 536.576 571.9 536.576ZM578.068 536.576C577.775 536.576 577.509 536.507 577.271 536.368C577.033 536.224 576.842 536.033 576.698 535.795C576.56 535.557 576.491 535.295 576.491 535.007C576.491 534.714 576.56 534.448 576.698 534.21C576.842 533.972 577.033 533.784 577.271 533.646C577.509 533.502 577.775 533.43 578.068 533.43C578.356 533.43 578.618 533.502 578.856 533.646C579.094 533.784 579.285 533.972 579.429 534.21C579.573 534.448 579.645 534.714 579.645 535.007C579.645 535.295 579.573 535.557 579.429 535.795C579.285 536.033 579.094 536.224 578.856 536.368C578.618 536.507 578.356 536.576 578.068 536.576Z" fill="currentColor"/></svg>