<svg xmlns="http://www.w3.org/2000/svg" viewBox="1003.11 52.6401 23.780000000000086 14.725100000000005"><path d="M1009.55 66.3652C1009.31 66.3652 1009.1 66.2767 1008.93 66.0996C1008.77 65.9281 1008.68 65.7205 1008.68 65.4771C1008.68 65.2336 1008.77 65.026 1008.93 64.8545C1009.1 64.6774 1009.31 64.5889 1009.55 64.5889H1020.48C1020.72 64.5889 1020.93 64.6774 1021.09 64.8545C1021.26 65.026 1021.35 65.2336 1021.35 65.4771C1021.35 65.7205 1021.26 65.9281 1021.09 66.0996C1020.93 66.2767 1020.72 66.3652 1020.48 66.3652H1009.55ZM1007.29 60.895C1007.05 60.895 1006.84 60.8092 1006.67 60.6377C1006.5 60.4606 1006.42 60.2503 1006.42 60.0068C1006.42 59.7633 1006.5 59.5531 1006.67 59.376C1006.84 59.1989 1007.05 59.1104 1007.29 59.1104H1022.74C1022.99 59.1104 1023.2 59.1989 1023.37 59.376C1023.53 59.5475 1023.62 59.7578 1023.62 60.0068C1023.62 60.2503 1023.53 60.4606 1023.36 60.6377C1023.19 60.8092 1022.99 60.895 1022.74 60.895H1007.29ZM1004.99 55.4165C1004.74 55.4165 1004.53 55.3307 1004.36 55.1592C1004.19 54.9821 1004.11 54.7718 1004.11 54.5283C1004.11 54.2793 1004.19 54.069 1004.36 53.8975C1004.53 53.7259 1004.74 53.6401 1004.99 53.6401H1025C1025.26 53.6401 1025.47 53.7259 1025.63 53.8975C1025.8 54.069 1025.89 54.2793 1025.89 54.5283C1025.89 54.7718 1025.8 54.9821 1025.63 55.1592C1025.46 55.3307 1025.25 55.4165 1025 55.4165H1004.99Z" fill="currentColor"/></svg>