<svg xmlns="http://www.w3.org/2000/svg" viewBox="36.4858 698.333 19.3487 19.34800000000007"><path d="M45.3965 716.681C45.1807 716.681 44.998 716.62 44.8486 716.499C44.7048 716.382 44.6051 716.216 44.5498 716L44.1182 714.174C43.9577 714.119 43.8 714.061 43.645 714C43.4901 713.939 43.3434 713.875 43.2051 713.809L41.6113 714.789C41.4287 714.899 41.2406 714.946 41.0469 714.93C40.8587 714.913 40.6899 714.83 40.5405 714.681L39.478 713.618C39.3286 713.469 39.2428 713.294 39.2207 713.095C39.2041 712.896 39.2567 712.708 39.3784 712.531L40.3496 710.945C40.2832 710.801 40.2196 710.655 40.1587 710.505C40.0978 710.356 40.0452 710.207 40.001 710.057L38.1582 709.617C37.9424 709.567 37.7764 709.471 37.6602 709.327C37.5439 709.177 37.4858 708.995 37.4858 708.779V707.276C37.4858 707.066 37.5439 706.889 37.6602 706.745C37.7764 706.596 37.9424 706.496 38.1582 706.446L39.9844 706.006C40.0342 705.835 40.0895 705.674 40.1504 705.525C40.2168 705.375 40.2777 705.234 40.333 705.102L39.3618 703.491C39.2456 703.309 39.193 703.123 39.2041 702.935C39.2207 702.747 39.3065 702.578 39.4614 702.429L40.5405 701.358C40.6899 701.208 40.856 701.123 41.0386 701.101C41.2212 701.078 41.4038 701.123 41.5864 701.233L43.1968 702.229C43.3351 702.158 43.4818 702.091 43.6367 702.03C43.7972 701.964 43.9577 701.903 44.1182 701.848L44.5498 700.013C44.6051 699.803 44.7048 699.637 44.8486 699.515C44.998 699.393 45.1807 699.333 45.3965 699.333H46.9238C47.1396 699.333 47.3195 699.393 47.4634 699.515C47.6128 699.637 47.7124 699.803 47.7622 700.013L48.1938 701.864C48.3654 701.92 48.5259 701.978 48.6753 702.039C48.8302 702.099 48.9741 702.166 49.1069 702.238L50.7339 701.233C50.911 701.123 51.0881 701.081 51.2651 701.109C51.4478 701.137 51.6165 701.22 51.7715 701.358L52.8589 702.429C53.0138 702.578 53.0968 702.747 53.1079 702.935C53.119 703.123 53.0692 703.309 52.9585 703.491L51.979 705.102C52.0343 705.234 52.0924 705.375 52.1533 705.525C52.2197 705.674 52.2806 705.835 52.3359 706.006L54.1621 706.446C54.3724 706.496 54.5356 706.596 54.6519 706.745C54.7736 706.889 54.8345 707.066 54.8345 707.276V708.779C54.8345 708.995 54.7736 709.177 54.6519 709.327C54.5356 709.471 54.3724 709.567 54.1621 709.617L52.3193 710.057C52.2695 710.207 52.2142 710.356 52.1533 710.505C52.098 710.655 52.0343 710.801 51.9624 710.945L52.9419 712.531C53.0636 712.708 53.1134 712.896 53.0913 713.095C53.0747 713.294 52.9917 713.469 52.8423 713.618L51.7715 714.681C51.6221 714.83 51.4505 714.913 51.2568 714.93C51.0687 714.946 50.8861 714.899 50.709 714.789L49.1069 713.809C48.9686 713.875 48.8219 713.939 48.667 714C48.512 714.061 48.3543 714.119 48.1938 714.174L47.7622 716C47.7124 716.216 47.6128 716.382 47.4634 716.499C47.3195 716.62 47.1396 716.681 46.9238 716.681H45.3965ZM46.1602 710.937C46.6969 710.937 47.1867 710.807 47.6294 710.547C48.0721 710.281 48.4263 709.927 48.6919 709.484C48.9575 709.036 49.0903 708.544 49.0903 708.007C49.0903 707.47 48.9575 706.98 48.6919 706.538C48.4263 706.089 48.0721 705.735 47.6294 705.475C47.1867 705.209 46.6969 705.077 46.1602 705.077C45.6178 705.077 45.1253 705.209 44.6826 705.475C44.2399 705.735 43.8857 706.089 43.6201 706.538C43.36 706.98 43.23 707.47 43.23 708.007C43.23 708.544 43.36 709.036 43.6201 709.484C43.8857 709.927 44.2399 710.281 44.6826 710.547C45.1253 710.807 45.6178 710.937 46.1602 710.937Z" fill="currentColor"/></svg>