<svg xmlns="http://www.w3.org/2000/svg" viewBox="47.5293 510.241 16.9414 16.942000000000007"><path d="M56 525.772C55.4922 525.772 55.0137 525.597 54.5645 525.245C54.1201 524.894 53.7271 524.4 53.3853 523.766C53.0483 523.131 52.7822 522.386 52.5869 521.532C52.3965 520.672 52.3013 519.737 52.3013 518.727C52.3013 517.716 52.3965 516.781 52.5869 515.921C52.7822 515.057 53.0483 514.308 53.3853 513.673C53.7222 513.033 54.1128 512.538 54.5571 512.186C55.0063 511.834 55.4873 511.659 56 511.659C56.5127 511.659 56.9912 511.834 57.4355 512.186C57.8848 512.538 58.2778 513.033 58.6147 513.673C58.9565 514.308 59.2227 515.057 59.4131 515.921C59.6035 516.781 59.6987 517.716 59.6987 518.727C59.6987 519.737 59.6011 520.672 59.4058 521.532C59.2153 522.386 58.9492 523.131 58.6074 523.766C58.2705 524.4 57.8774 524.894 57.4282 525.245C56.9839 525.597 56.5078 525.772 56 525.772ZM56 512.545C55.6436 512.545 55.3018 512.711 54.9746 513.043C54.6475 513.37 54.3569 513.819 54.103 514.391C53.8491 514.962 53.6489 515.621 53.5024 516.368C53.356 517.11 53.2827 517.896 53.2827 518.727C53.2827 519.547 53.356 520.326 53.5024 521.063C53.6489 521.8 53.8491 522.457 54.103 523.033C54.3569 523.604 54.6475 524.054 54.9746 524.381C55.3018 524.713 55.6436 524.879 56 524.879C56.3564 524.879 56.6982 524.713 57.0254 524.381C57.3525 524.054 57.6431 523.604 57.897 523.033C58.1509 522.457 58.3511 521.8 58.4976 521.063C58.644 520.326 58.7173 519.547 58.7173 518.727C58.7173 517.896 58.644 517.11 58.4976 516.368C58.3511 515.621 58.1509 514.962 57.897 514.391C57.6431 513.819 57.3525 513.37 57.0254 513.043C56.6982 512.711 56.3564 512.545 56 512.545ZM55.5239 511.761H56.4834V525.633H55.5239V511.761ZM56 521.466C56.752 521.466 57.4648 521.529 58.1387 521.656C58.8125 521.778 59.418 521.957 59.9551 522.191C60.4971 522.42 60.939 522.691 61.2808 523.004L60.541 523.612C60.2188 523.358 59.8306 523.143 59.3765 522.967C58.9272 522.787 58.417 522.652 57.8457 522.564C57.2793 522.472 56.6641 522.425 56 522.425C55.3359 522.425 54.7183 522.472 54.147 522.564C53.5806 522.652 53.0703 522.787 52.6162 522.967C52.167 523.143 51.7812 523.358 51.459 523.612L50.7192 523.004C51.061 522.691 51.5005 522.42 52.0376 522.191C52.5796 521.957 53.1875 521.778 53.8613 521.656C54.5352 521.529 55.248 521.466 56 521.466ZM62.7603 518.229V519.188H49.2397V518.229H62.7603ZM56 515.995C55.248 515.995 54.5352 515.934 53.8613 515.812C53.1875 515.685 52.5796 515.506 52.0376 515.277C51.5005 515.042 51.061 514.769 50.7192 514.457L51.459 513.849C51.7812 514.103 52.167 514.32 52.6162 514.5C53.0703 514.676 53.5806 514.811 54.147 514.903C54.7183 514.991 55.3359 515.035 56 515.035C56.6641 515.035 57.2793 514.991 57.8457 514.903C58.417 514.811 58.9272 514.676 59.3765 514.5C59.8306 514.32 60.2188 514.103 60.541 513.849L61.2808 514.457C60.939 514.769 60.4971 515.042 59.9551 515.277C59.418 515.506 58.8125 515.685 58.1387 515.812C57.4648 515.934 56.752 515.995 56 515.995ZM56 526.183C54.9697 526.183 54.0029 525.987 53.0996 525.597C52.1963 525.211 51.4028 524.676 50.7192 523.993C50.0356 523.309 49.4985 522.516 49.1079 521.612C48.7222 520.709 48.5293 519.742 48.5293 518.712C48.5293 517.682 48.7222 516.715 49.1079 515.812C49.4985 514.908 50.0356 514.115 50.7192 513.431C51.4028 512.743 52.1963 512.206 53.0996 511.82C54.0029 511.434 54.9697 511.241 56 511.241C57.0303 511.241 57.9971 511.434 58.9004 511.82C59.8037 512.206 60.5972 512.743 61.2808 513.431C61.9644 514.115 62.499 514.908 62.8848 515.812C63.2754 516.715 63.4707 517.682 63.4707 518.712C63.4707 519.742 63.2754 520.709 62.8848 521.612C62.499 522.516 61.9644 523.309 61.2808 523.993C60.5972 524.676 59.8037 525.211 58.9004 525.597C57.9971 525.987 57.0303 526.183 56 526.183ZM56 525.187C56.8936 525.187 57.731 525.018 58.5122 524.681C59.2935 524.344 59.9819 523.88 60.5776 523.29C61.1733 522.694 61.6372 522.005 61.9692 521.224C62.3062 520.443 62.4746 519.605 62.4746 518.712C62.4746 517.818 62.3062 516.981 61.9692 516.2C61.6372 515.414 61.1733 514.725 60.5776 514.134C59.9819 513.539 59.2935 513.075 58.5122 512.743C57.731 512.406 56.8936 512.237 56 512.237C55.1064 512.237 54.269 512.406 53.4878 512.743C52.7065 513.075 52.0181 513.539 51.4224 514.134C50.8267 514.725 50.3604 515.414 50.0234 516.2C49.6914 516.981 49.5254 517.818 49.5254 518.712C49.5254 519.605 49.6914 520.443 50.0234 521.224C50.3604 522.005 50.8267 522.694 51.4224 523.29C52.0181 523.88 52.7065 524.344 53.4878 524.681C54.269 525.018 55.1064 525.187 56 525.187Z" fill="currentColor"/></svg>