<svg xmlns="http://www.w3.org/2000/svg" viewBox="1071.31 222.241 16.940000000000055 16.94199999999998"><path d="M1079.78 238.183C1078.75 238.183 1077.78 237.987 1076.88 237.597C1075.98 237.211 1075.18 236.676 1074.5 235.993C1073.82 235.309 1073.28 234.516 1072.89 233.612C1072.5 232.709 1072.31 231.742 1072.31 230.712C1072.31 229.682 1072.5 228.715 1072.89 227.812C1073.28 226.908 1073.82 226.115 1074.5 225.431C1075.18 224.743 1075.98 224.206 1076.88 223.82C1077.78 223.434 1078.75 223.241 1079.78 223.241C1080.81 223.241 1081.78 223.434 1082.68 223.82C1083.59 224.206 1084.38 224.743 1085.06 225.431C1085.75 226.115 1086.28 226.908 1086.67 227.812C1087.06 228.715 1087.25 229.682 1087.25 230.712C1087.25 231.742 1087.06 232.709 1086.67 233.612C1086.28 234.516 1085.75 235.309 1085.06 235.993C1084.38 236.676 1083.59 237.211 1082.68 237.597C1081.78 237.987 1080.81 238.183 1079.78 238.183ZM1079.78 236.938C1080.64 236.938 1081.45 236.776 1082.2 236.454C1082.95 236.132 1083.61 235.685 1084.18 235.114C1084.75 234.542 1085.2 233.881 1085.52 233.129C1085.85 232.377 1086.01 231.571 1086.01 230.712C1086.01 229.853 1085.85 229.047 1085.52 228.295C1085.2 227.538 1084.75 226.876 1084.18 226.31C1083.61 225.739 1082.95 225.292 1082.2 224.97C1081.45 224.647 1080.64 224.486 1079.78 224.486C1078.92 224.486 1078.12 224.647 1077.36 224.97C1076.61 225.292 1075.95 225.739 1075.38 226.31C1074.81 226.876 1074.36 227.538 1074.04 228.295C1073.72 229.047 1073.56 229.853 1073.56 230.712C1073.56 231.571 1073.72 232.377 1074.04 233.129C1074.36 233.881 1074.81 234.542 1075.38 235.114C1075.95 235.685 1076.61 236.132 1077.36 236.454C1078.12 236.776 1078.92 236.938 1079.78 236.938ZM1078.5 234.806C1078.35 234.806 1078.22 234.757 1078.12 234.66C1078.02 234.562 1077.97 234.44 1077.97 234.293C1077.97 234.147 1078.02 234.025 1078.12 233.927C1078.22 233.83 1078.35 233.781 1078.5 233.781H1079.41V230.419H1078.62C1078.47 230.419 1078.35 230.37 1078.24 230.272C1078.14 230.175 1078.09 230.053 1078.09 229.906C1078.09 229.76 1078.14 229.638 1078.24 229.54C1078.35 229.442 1078.47 229.394 1078.62 229.394H1080C1080.19 229.394 1080.33 229.455 1080.43 229.577C1080.52 229.694 1080.57 229.853 1080.57 230.053V233.781H1081.48C1081.63 233.781 1081.76 233.83 1081.86 233.927C1081.96 234.025 1082.02 234.147 1082.02 234.293C1082.02 234.44 1081.96 234.562 1081.86 234.66C1081.76 234.757 1081.63 234.806 1081.48 234.806H1078.5ZM1079.72 228.17C1079.45 228.17 1079.23 228.078 1079.04 227.892C1078.86 227.707 1078.76 227.482 1078.76 227.218C1078.76 226.95 1078.86 226.723 1079.04 226.537C1079.23 226.352 1079.45 226.259 1079.72 226.259C1079.98 226.259 1080.21 226.352 1080.39 226.537C1080.58 226.723 1080.67 226.95 1080.67 227.218C1080.67 227.482 1080.58 227.707 1080.39 227.892C1080.21 228.078 1079.98 228.17 1079.72 228.17Z" fill="currentColor"/></svg>