<svg xmlns="http://www.w3.org/2000/svg" viewBox="34.0 38.0 20.0 20.0"><path id="Vector" d="M38.0315 45.949L42.0218 47.6358L41.9083 47.8724C41.4567 47.7677 40.8033 47.5159 39.9481 47.1157L39.8423 47.3185C40.3931 47.6063 40.7629 47.7928 40.9506 47.88C41.4185 48.1046 41.8898 48.2148 42.3654 48.2148C43.7529 48.2148 44.6889 47.5202 45.1689 46.1321C45.9837 45.9806 47.0342 45.9043 48.3236 45.9043C49.3773 45.9043 50.454 45.9664 51.5492 46.0896L51.2339 46.4745C50.5172 46.3808 49.71 46.335 48.8068 46.335C48.0465 46.335 47.5033 46.347 47.1815 46.371L47.032 46.6861C47.5774 46.6621 48.1098 46.6523 48.6323 46.6523C49.5562 46.6523 50.3482 46.6839 51.0049 46.7471L50.6885 47.1528C50.5642 47.1462 50.2958 47.131 49.8791 47.107C49.4864 47.0906 48.9301 47.0819 48.2101 47.0819C47.7651 47.0819 47.3015 47.0971 46.8215 47.1266L46.6808 47.4417C47.2316 47.4014 47.8502 47.3795 48.5341 47.3795C49.2562 47.3795 49.8998 47.397 50.4682 47.433L50.1507 47.8299C48.7446 47.7405 47.5153 47.7677 46.4615 47.9084L46.3121 48.1984C47.1084 48.121 47.9342 48.0829 48.7894 48.0829C49.1581 48.0829 49.5377 48.0916 49.9228 48.1101L49.589 48.5212C49.0392 48.5114 48.6977 48.5048 48.5701 48.5048C46.9535 48.5048 45.6281 48.7938 44.5973 49.376C45.0249 49.8013 45.5878 50.1807 46.2837 50.5089C47.1411 50.9004 48.0018 51.0967 48.869 51.0967C48.9628 51.0967 49.133 51.0901 49.3773 51.0792L48.641 51.8163L48.4468 51.765C46.5717 51.2733 45.1165 50.8153 44.0791 50.3933C43.2403 50.0128 41.9247 49.3008 40.1325 48.2595C38.6554 47.4101 37.4403 46.8344 36.4847 46.5367L36.6079 46.0896C36.873 46.13 37.2733 46.2466 37.8122 46.4407L38.0315 45.949V45.949ZM43.9384 39.9388C41.7763 39.9388 39.9132 40.7075 38.3489 42.2417C37.593 42.9842 37.0006 43.8685 36.573 44.8902C36.1454 45.913 35.9316 46.9565 35.9316 48.0207C35.9316 50.2298 36.7192 52.1271 38.2955 53.7136C39.8543 55.2837 41.7491 56.0688 43.982 56.0688C46.2554 56.0688 48.1807 55.2663 49.757 53.6623C51.2972 52.0933 52.0685 50.2189 52.0685 48.0403C52.0685 46.963 51.8601 45.9173 51.4445 44.9033C51.0278 43.8892 50.4518 43.018 49.7122 42.2864C48.1185 40.7206 46.1943 39.9388 43.9384 39.9388L43.9384 39.9388ZM44.1489 39C46.5466 39 48.6192 39.8756 50.3722 41.6256C52.124 43.3822 53 45.515 53 48.0207C53 50.4577 52.1415 52.5534 50.4234 54.3035C48.6606 56.1015 46.5138 57 43.982 57C41.4862 57 39.371 56.1244 37.6366 54.3744C35.8781 52.6047 35 50.4893 35 48.0294C35 46.8311 35.24 45.6546 35.7211 44.5075C36.201 43.3593 36.8577 42.3856 37.69 41.5831C39.4823 39.8603 41.6356 39 44.1489 39H44.1489Z" fill="black"/></svg>