<svg xmlns="http://www.w3.org/2000/svg" viewBox="575 229 304 346"><path d="M876.952 285.491C876.952 255.395 855.324 231 828.644 231H686.215C651.218 231 622.849 262.998 622.849 302.468V375.957L596.618 418.382C576.727 451.217 585.581 489.231 617.545 500.924C666.584 516.433 697.727 488.263 713.209 462.708L730.114 435.393V573H768.168V390.481L876.952 356.959V285.491ZM635.534 302.468C635.534 270.053 658.841 243.685 687.494 243.685C716.143 243.685 739.454 270.056 739.454 302.468L739.389 382.718L635.531 369.185L635.534 302.468ZM702.426 456.039L702.395 456.091L702.364 456.142C688.749 478.622 658.503 501.491 621.864 489.001C588.259 474.692 598.249 440.444 607.446 425.006L634.152 381.812L739.55 396.063L702.426 456.039ZM801.5 268.442L787.44 269.875C779.15 270.498 778.982 279.704 778.982 281.914C778.982 289.622 779.229 358.949 778.982 360.748C778.487 364.411 775.781 367.844 771.883 368.026C766.397 368.286 762.991 362.759 762.991 357.844C762.991 353.781 762.731 272.987 762.991 262.365C762.991 258.801 765.436 254.93 769.235 254.598C769.872 254.543 801.5 251.763 801.5 251.763C801.5 256.099 801.5 268.442 801.5 268.442ZM776.585 355.909C776.585 358.675 774.643 360.919 772.242 360.919C769.841 360.919 767.898 358.675 767.898 355.909C767.898 353.138 769.841 350.898 772.242 350.898C774.643 350.898 776.585 353.142 776.585 355.909Z" fill="currentColor"/></svg>