<svg xmlns="http://www.w3.org/2000/svg" viewBox="973.254 653.974 15.484000000000037 15.483999999999924"><path d="M976.554 668.458C975.788 668.458 975.211 668.267 974.826 667.886C974.445 667.51 974.254 666.946 974.254 666.194V657.244C974.254 656.487 974.445 655.921 974.826 655.545C975.211 655.164 975.788 654.974 976.554 654.974H985.438C986.205 654.974 986.779 655.164 987.16 655.545C987.545 655.926 987.738 656.492 987.738 657.244V666.194C987.738 666.946 987.545 667.51 987.16 667.886C986.779 668.267 986.205 668.458 985.438 668.458H976.554ZM976.569 667.278H985.424C985.785 667.278 986.063 667.183 986.259 666.993C986.459 666.797 986.559 666.509 986.559 666.128V657.31C986.559 656.929 986.459 656.641 986.259 656.446C986.063 656.25 985.785 656.153 985.424 656.153H976.569C976.203 656.153 975.922 656.25 975.727 656.446C975.531 656.641 975.434 656.929 975.434 657.31V666.128C975.434 666.509 975.531 666.797 975.727 666.993C975.922 667.183 976.203 667.278 976.569 667.278ZM981.615 664.473C981.615 664.659 981.557 664.81 981.439 664.927C981.327 665.04 981.178 665.096 980.993 665.096C980.817 665.096 980.673 665.04 980.561 664.927C980.448 664.81 980.392 664.659 980.392 664.473V658.936C980.392 658.75 980.448 658.599 980.561 658.482C980.673 658.365 980.817 658.306 980.993 658.306C981.178 658.306 981.327 658.365 981.439 658.482C981.557 658.594 981.615 658.746 981.615 658.936V664.473ZM978.239 662.312C978.053 662.312 977.902 662.256 977.785 662.144C977.667 662.032 977.609 661.888 977.609 661.712C977.609 661.526 977.665 661.377 977.777 661.265C977.895 661.148 978.048 661.089 978.239 661.089H983.776C983.961 661.089 984.11 661.148 984.223 661.265C984.34 661.377 984.398 661.526 984.398 661.712C984.398 661.888 984.34 662.032 984.223 662.144C984.11 662.256 983.961 662.312 983.776 662.312H978.239Z" fill="currentColor"/></svg>