<svg xmlns="http://www.w3.org/2000/svg" viewBox="47.5293 630.816 16.9414 17.366999999999962"><path d="M56 647.183C54.9697 647.183 54.0029 646.987 53.0996 646.597C52.1963 646.211 51.4028 645.676 50.7192 644.993C50.0356 644.309 49.4985 643.516 49.1079 642.612C48.7222 641.709 48.5293 640.742 48.5293 639.712C48.5293 638.965 48.6318 638.252 48.8369 637.573C49.0469 636.895 49.335 636.272 49.7012 635.706C50.0674 635.139 50.4873 634.646 50.9609 634.226C51.0928 634.109 51.2246 634.045 51.3564 634.036C51.4932 634.026 51.6152 634.053 51.7227 634.116C51.8301 634.18 51.9106 634.268 51.9644 634.38C52.0229 634.487 52.04 634.607 52.0156 634.739C51.9961 634.866 51.9204 634.99 51.7886 635.112C51.1733 635.684 50.6826 636.365 50.3164 637.156C49.9551 637.942 49.7744 638.794 49.7744 639.712C49.7744 640.571 49.9355 641.377 50.2578 642.129C50.5801 642.881 51.0269 643.542 51.5981 644.114C52.1694 644.685 52.8311 645.132 53.583 645.454C54.335 645.776 55.1406 645.938 56 645.938C56.8594 645.938 57.665 645.776 58.417 645.454C59.1689 645.132 59.8306 644.685 60.4019 644.114C60.9731 643.542 61.4199 642.881 61.7422 642.129C62.0645 641.377 62.2256 640.571 62.2256 639.712C62.2256 638.799 62.0449 637.949 61.6836 637.163C61.3223 636.372 60.8315 635.691 60.2114 635.12C60.0796 635.002 60.0039 634.878 59.9844 634.746C59.9648 634.614 59.9819 634.492 60.0356 634.38C60.0942 634.263 60.1772 634.172 60.2847 634.109C60.397 634.041 60.519 634.014 60.6509 634.028C60.7827 634.038 60.9146 634.102 61.0464 634.219C61.5151 634.648 61.9326 635.144 62.2988 635.706C62.665 636.262 62.9507 636.877 63.1558 637.551C63.3657 638.22 63.4707 638.94 63.4707 639.712C63.4707 640.742 63.2754 641.709 62.8848 642.612C62.499 643.516 61.9644 644.309 61.2808 644.993C60.5972 645.676 59.8037 646.211 58.9004 646.597C57.9971 646.987 57.0303 647.183 56 647.183ZM56 639.639C55.8242 639.639 55.6826 639.583 55.5752 639.47C55.4678 639.353 55.4141 639.202 55.4141 639.016V632.439C55.4141 632.253 55.4678 632.104 55.5752 631.992C55.6826 631.875 55.8242 631.816 56 631.816C56.1758 631.816 56.3174 631.875 56.4248 631.992C56.5371 632.104 56.5933 632.253 56.5933 632.439V639.016C56.5933 639.202 56.5371 639.353 56.4248 639.47C56.3174 639.583 56.1758 639.639 56 639.639Z" fill="currentColor"/></svg>