<svg xmlns="http://www.w3.org/2000/svg" viewBox="400.496 274.589 15.001000000000033 17.660000000000025"><path d="M404.558 291.249C403.576 291.249 402.819 290.982 402.287 290.45C401.76 289.923 401.496 289.168 401.496 288.187V282.547C401.496 281.566 401.76 280.812 402.287 280.284C402.819 279.752 403.576 279.486 404.558 279.486H406.037V280.665H404.558C403.957 280.665 403.493 280.829 403.166 281.156C402.839 281.483 402.675 281.947 402.675 282.547V288.187C402.675 288.788 402.839 289.251 403.166 289.579C403.493 289.906 403.957 290.069 404.558 290.069H411.428C412.033 290.069 412.5 289.906 412.827 289.579C413.154 289.251 413.317 288.788 413.317 288.187V282.547C413.317 281.947 413.154 281.483 412.827 281.156C412.5 280.829 412.033 280.665 411.428 280.665H409.948V279.486H411.428C412.414 279.486 413.171 279.752 413.698 280.284C414.23 280.812 414.497 281.566 414.497 282.547V288.187C414.497 289.168 414.23 289.923 413.698 290.45C413.171 290.982 412.414 291.249 411.428 291.249H404.558ZM408 275.589C408.156 275.589 408.291 275.646 408.403 275.758C408.52 275.87 408.579 276.002 408.579 276.153V283.609L408.491 285.58C408.481 285.716 408.43 285.833 408.337 285.931C408.244 286.024 408.132 286.07 408 286.07C407.863 286.07 407.749 286.024 407.656 285.931C407.563 285.833 407.512 285.716 407.502 285.58L407.414 283.609V276.153C407.414 276.002 407.47 275.87 407.583 275.758C407.7 275.646 407.839 275.589 408 275.589ZM405.51 282.884C405.676 282.884 405.81 282.943 405.913 283.06L407.048 284.269L408 285.279L408.945 284.269L410.08 283.06C410.178 282.943 410.31 282.884 410.476 282.884C410.627 282.884 410.754 282.933 410.856 283.031C410.959 283.128 411.01 283.25 411.01 283.397C411.01 283.539 410.952 283.668 410.834 283.785L408.417 286.114C408.344 286.188 408.273 286.239 408.205 286.268C408.142 286.297 408.073 286.312 408 286.312C407.922 286.312 407.849 286.297 407.78 286.268C407.717 286.239 407.648 286.188 407.575 286.114L405.158 283.785C405.041 283.668 404.982 283.539 404.982 283.397C404.982 283.25 405.031 283.128 405.129 283.031C405.231 282.933 405.358 282.884 405.51 282.884Z" fill="currentColor"/></svg>