<svg xmlns="http://www.w3.org/2000/svg" viewBox="985.915 52.8057 22.175000000000068 18.3857"><path d="M998.909 70.1914C998.616 70.1914 998.375 70.0973 998.187 69.9092C997.999 69.7266 997.905 69.4969 997.905 69.2202C997.905 69.0708 997.932 68.9325 997.988 68.8052C998.043 68.6834 998.115 68.5783 998.204 68.4897L1000.99 65.6758L1004.98 61.9985L1000.99 58.3213L998.204 55.499C998.11 55.4049 998.035 55.297 997.979 55.1753C997.93 55.048 997.905 54.9152 997.905 54.7769C997.905 54.4946 997.999 54.2622 998.187 54.0796C998.375 53.897 998.616 53.8057 998.909 53.8057C999.036 53.8057 999.164 53.8333 999.291 53.8887C999.424 53.9385 999.551 54.027 999.673 54.1543L1006.75 61.2432C1006.97 61.4535 1007.09 61.7052 1007.09 61.9985C1007.09 62.2863 1006.97 62.5353 1006.75 62.7456L999.64 69.876C999.418 70.0863 999.175 70.1914 998.909 70.1914ZM987.944 63.0112C987.639 63.0112 987.39 62.9172 987.197 62.729C987.009 62.5353 986.915 62.2918 986.915 61.9985C986.915 61.6942 987.009 61.4507 987.197 61.2681C987.39 61.0799 987.639 60.9858 987.944 60.9858H1001.57L1005.08 61.1685C1005.33 61.1851 1005.54 61.2653 1005.69 61.4092C1005.85 61.5531 1005.92 61.7495 1005.92 61.9985C1005.92 62.242 1005.84 62.4357 1005.68 62.5796C1005.53 62.7235 1005.32 62.8037 1005.07 62.8203L1001.57 63.0112H987.944Z" fill="currentColor"/></svg>