<svg xmlns="http://www.w3.org/2000/svg" viewBox="400.496 233.798 15.001000000000033 18.450999999999993"><path d="M405.51 238.219C405.358 238.219 405.231 238.17 405.129 238.072C405.031 237.975 404.982 237.853 404.982 237.706C404.982 237.564 405.041 237.435 405.158 237.318L407.568 234.989C407.646 234.916 407.717 234.867 407.78 234.842C407.849 234.813 407.919 234.798 407.993 234.798C408.071 234.798 408.142 234.813 408.205 234.842C408.273 234.867 408.344 234.916 408.417 234.989L410.834 237.318C410.947 237.435 411.003 237.564 411.003 237.706C411.003 237.853 410.952 237.975 410.849 238.072C410.747 238.17 410.62 238.219 410.468 238.219C410.307 238.219 410.175 238.16 410.073 238.043L408.945 236.834L407.993 235.831L407.048 236.834L405.913 238.043C405.81 238.16 405.676 238.219 405.51 238.219ZM407.993 245.514C407.836 245.514 407.7 245.46 407.583 245.353C407.47 245.24 407.414 245.106 407.414 244.95V237.501L407.502 235.523C407.512 235.392 407.563 235.277 407.656 235.179C407.749 235.082 407.861 235.033 407.993 235.033C408.129 235.033 408.244 235.082 408.337 235.179C408.43 235.277 408.481 235.392 408.491 235.523L408.579 237.501V244.95C408.579 245.106 408.52 245.24 408.403 245.353C408.291 245.46 408.154 245.514 407.993 245.514ZM404.558 251.249C403.576 251.249 402.819 250.982 402.287 250.45C401.76 249.923 401.496 249.168 401.496 248.187V242.547C401.496 241.566 401.76 240.812 402.287 240.284C402.819 239.752 403.576 239.486 404.558 239.486H406.037V240.665H404.558C403.957 240.665 403.493 240.829 403.166 241.156C402.839 241.483 402.675 241.947 402.675 242.547V248.187C402.675 248.792 402.839 249.256 403.166 249.579C403.493 249.906 403.957 250.069 404.558 250.069H411.428C412.033 250.069 412.5 249.906 412.827 249.579C413.154 249.256 413.317 248.792 413.317 248.187V242.547C413.317 241.947 413.154 241.483 412.827 241.156C412.5 240.829 412.033 240.665 411.428 240.665H409.948V239.486H411.428C412.414 239.486 413.171 239.752 413.698 240.284C414.23 240.812 414.497 241.566 414.497 242.547V248.187C414.497 249.168 414.23 249.923 413.698 250.45C413.171 250.982 412.414 251.249 411.428 251.249H404.558Z" fill="currentColor"/></svg>