<svg xmlns="http://www.w3.org/2000/svg" viewBox="634.183 673.616 23.625 29.368000000000052"><path d="M641.862 680.414C641.603 680.414 641.377 680.327 641.185 680.154C641 679.981 640.907 679.758 640.907 679.486C640.907 679.35 640.931 679.23 640.981 679.125C641.037 679.013 641.114 678.908 641.213 678.809L645.165 674.996C645.307 674.854 645.443 674.755 645.573 674.699C645.709 674.644 645.852 674.616 646 674.616C646.142 674.616 646.281 674.644 646.417 674.699C646.554 674.755 646.693 674.854 646.835 674.996L650.778 678.809C650.877 678.908 650.951 679.013 651 679.125C651.056 679.23 651.084 679.35 651.084 679.486C651.084 679.758 650.988 679.981 650.796 680.154C650.605 680.327 650.379 680.414 650.119 680.414C649.835 680.414 649.593 680.309 649.396 680.099L647.642 678.252L646 676.174L644.349 678.252L642.586 680.099C642.394 680.309 642.153 680.414 641.862 680.414ZM646 692.298C645.697 692.298 645.437 692.193 645.221 691.983C645.01 691.773 644.905 691.525 644.905 691.241V679.189L645.109 675.822C645.128 675.581 645.218 675.373 645.378 675.2C645.545 675.027 645.753 674.94 646 674.94C646.241 674.94 646.442 675.027 646.603 675.2C646.77 675.373 646.863 675.581 646.881 675.822L647.085 679.189V691.241C647.085 691.525 646.977 691.773 646.761 691.983C646.55 692.193 646.297 692.298 646 692.298ZM640.332 701.984C638.68 701.984 637.409 701.539 636.519 700.648C635.628 699.764 635.183 698.493 635.183 696.835V687.641C635.183 685.996 635.628 684.728 636.519 683.837C637.409 682.947 638.68 682.501 640.332 682.501H642.744V684.839H640.406C639.484 684.839 638.773 685.09 638.272 685.591C637.771 686.092 637.521 686.806 637.521 687.734V696.761C637.521 697.682 637.771 698.394 638.272 698.895C638.773 699.396 639.484 699.646 640.406 699.646H651.576C652.503 699.646 653.218 699.396 653.719 698.895C654.22 698.394 654.47 697.682 654.47 696.761V687.734C654.47 686.806 654.22 686.092 653.719 685.591C653.218 685.09 652.503 684.839 651.576 684.839H649.256V682.501H651.659C653.317 682.501 654.588 682.947 655.472 683.837C656.363 684.728 656.808 685.996 656.808 687.641V696.835C656.808 698.493 656.363 699.764 655.472 700.648C654.588 701.539 653.317 701.984 651.659 701.984H640.332Z" fill="currentColor"/></svg>