<svg xmlns="http://www.w3.org/2000/svg" viewBox="286.366 39.1206 27.26800000000003 21.7808"><path d="M295.717 58.3906V41.6147H297.46V58.3906H295.717ZM291.815 59.9014C290.88 59.9014 290.081 59.7243 289.417 59.3701C288.752 59.0215 288.243 58.5151 287.889 57.8511C287.541 57.1925 287.366 56.3957 287.366 55.4604V44.5698C287.366 43.6346 287.541 42.835 287.889 42.1709C288.243 41.5068 288.752 41.0005 289.417 40.6519C290.081 40.2977 290.88 40.1206 291.815 40.1206H308.367C309.264 40.1206 310.027 40.2977 310.658 40.6519C311.295 41.0005 311.782 41.5068 312.119 42.1709C312.462 42.835 312.634 43.6346 312.634 44.5698V55.4604C312.634 56.3957 312.462 57.1925 312.119 57.8511C311.782 58.5151 311.295 59.0215 310.658 59.3701C310.027 59.7243 309.264 59.9014 308.367 59.9014H291.815ZM291.907 58.0752H308.093C308.945 58.0752 309.607 57.8345 310.077 57.353C310.553 56.8771 310.791 56.2131 310.791 55.3608V44.6611C310.791 43.8089 310.553 43.1449 310.077 42.6689C309.607 42.193 308.945 41.9551 308.093 41.9551H291.907C291.055 41.9551 290.39 42.193 289.915 42.6689C289.439 43.1449 289.201 43.8089 289.201 44.6611V55.3608C289.201 56.2131 289.439 56.8771 289.915 57.353C290.39 57.8345 291.055 58.0752 291.907 58.0752ZM293.625 45.9062H291.301C291.124 45.9062 290.974 45.8454 290.853 45.7236C290.731 45.5964 290.67 45.4525 290.67 45.292C290.67 45.126 290.731 44.9821 290.853 44.8604C290.974 44.7386 291.124 44.6777 291.301 44.6777H293.625C293.797 44.6777 293.943 44.7386 294.065 44.8604C294.192 44.9821 294.256 45.126 294.256 45.292C294.256 45.4525 294.192 45.5964 294.065 45.7236C293.943 45.8454 293.797 45.9062 293.625 45.9062ZM293.625 48.7783H291.301C291.124 48.7783 290.974 48.7174 290.853 48.5957C290.731 48.474 290.67 48.3301 290.67 48.1641C290.67 47.998 290.731 47.8569 290.853 47.7407C290.974 47.619 291.124 47.5581 291.301 47.5581H293.625C293.797 47.5581 293.943 47.619 294.065 47.7407C294.192 47.8569 294.256 47.998 294.256 48.1641C294.256 48.3301 294.192 48.474 294.065 48.5957C293.943 48.7174 293.797 48.7783 293.625 48.7783ZM293.625 51.6587H291.301C291.124 51.6587 290.974 51.5978 290.853 51.4761C290.731 51.3543 290.67 51.2104 290.67 51.0444C290.67 50.8784 290.731 50.7373 290.853 50.6211C290.974 50.5049 291.124 50.4468 291.301 50.4468H293.625C293.797 50.4468 293.943 50.5049 294.065 50.6211C294.192 50.7373 294.256 50.8784 294.256 51.0444C294.256 51.2104 294.192 51.3543 294.065 51.4761C293.943 51.5978 293.797 51.6587 293.625 51.6587Z" fill="currentColor"/></svg>