<svg xmlns="http://www.w3.org/2000/svg" viewBox="370.923 588.697 27.00799999999998 27.008000000000038"><path d="M384.427 597.26C384.069 597.26 383.757 597.131 383.492 596.873C383.234 596.608 383.105 596.297 383.105 595.938V591.019C383.105 590.66 383.234 590.353 383.492 590.095C383.75 589.83 384.062 589.697 384.427 589.697C384.792 589.697 385.104 589.83 385.361 590.095C385.619 590.353 385.748 590.66 385.748 591.019V595.938C385.748 596.297 385.619 596.608 385.361 596.873C385.104 597.131 384.792 597.26 384.427 597.26ZM387.918 598.71C387.66 598.452 387.531 598.141 387.531 597.775C387.531 597.403 387.66 597.088 387.918 596.83L391.388 593.36C391.653 593.103 391.968 592.974 392.333 592.974C392.698 592.974 393.01 593.103 393.268 593.36C393.525 593.611 393.654 593.923 393.654 594.295C393.654 594.66 393.525 594.972 393.268 595.229L389.787 598.71C389.536 598.968 389.225 599.097 388.853 599.097C388.487 599.097 388.176 598.968 387.918 598.71ZM389.357 602.201C389.357 601.836 389.49 601.524 389.755 601.267C390.02 601.009 390.335 600.88 390.7 600.88H395.609C395.967 600.88 396.275 601.009 396.533 601.267C396.798 601.524 396.931 601.836 396.931 602.201C396.931 602.566 396.802 602.878 396.544 603.136C396.286 603.394 395.975 603.522 395.609 603.522H390.7C390.335 603.522 390.02 603.394 389.755 603.136C389.49 602.878 389.357 602.566 389.357 602.201ZM387.918 605.692C388.176 605.435 388.487 605.306 388.853 605.306C389.225 605.306 389.536 605.435 389.787 605.692L393.268 609.162C393.525 609.42 393.654 609.731 393.654 610.097C393.654 610.469 393.525 610.784 393.268 611.042C393.01 611.293 392.698 611.418 392.333 611.418C391.968 611.418 391.653 611.293 391.388 611.042L387.918 607.562C387.66 607.311 387.531 607.003 387.531 606.638C387.531 606.265 387.66 605.95 387.918 605.692ZM384.427 607.143C384.792 607.143 385.104 607.275 385.361 607.54C385.619 607.798 385.748 608.106 385.748 608.464V613.373C385.748 613.738 385.619 614.05 385.361 614.308C385.104 614.573 384.792 614.705 384.427 614.705C384.062 614.705 383.75 614.573 383.492 614.308C383.234 614.05 383.105 613.738 383.105 613.373V608.464C383.105 608.106 383.234 607.798 383.492 607.54C383.757 607.275 384.069 607.143 384.427 607.143ZM380.936 605.692C381.201 605.95 381.329 606.265 381.322 606.638C381.322 607.003 381.193 607.311 380.936 607.562L377.466 611.042C377.208 611.293 376.893 611.418 376.521 611.418C376.155 611.418 375.844 611.293 375.586 611.042C375.328 610.784 375.199 610.469 375.199 610.097C375.199 609.731 375.328 609.42 375.586 609.162L379.066 605.692C379.317 605.435 379.625 605.306 379.99 605.306C380.363 605.306 380.678 605.435 380.936 605.692ZM379.496 602.201C379.496 602.566 379.364 602.878 379.099 603.136C378.834 603.394 378.522 603.522 378.164 603.522H373.244C372.886 603.522 372.575 603.394 372.31 603.136C372.052 602.878 371.923 602.566 371.923 602.201C371.923 601.836 372.052 601.524 372.31 601.267C372.575 601.009 372.886 600.88 373.244 600.88H378.164C378.522 600.88 378.834 601.009 379.099 601.267C379.364 601.524 379.496 601.836 379.496 602.201ZM380.936 598.71C380.678 598.968 380.363 599.097 379.99 599.097C379.625 599.097 379.317 598.968 379.066 598.71L375.586 595.229C375.328 594.972 375.199 594.66 375.199 594.295C375.199 593.923 375.328 593.611 375.586 593.36C375.844 593.103 376.155 592.974 376.521 592.974C376.893 592.974 377.208 593.103 377.466 593.36L380.936 596.83C381.193 597.088 381.322 597.403 381.322 597.775C381.322 598.141 381.193 598.452 380.936 598.71Z" fill="currentColor"/></svg>