<svg xmlns="http://www.w3.org/2000/svg" viewBox="399.91 313.908 16.17999999999995 18.31099999999998"><path d="M405.832 328.861C405.695 328.861 405.585 328.822 405.502 328.744C405.419 328.666 405.375 328.561 405.371 328.429L405.151 320.599C405.146 320.472 405.185 320.37 405.268 320.292C405.356 320.208 405.468 320.167 405.605 320.167C405.737 320.167 405.844 320.206 405.927 320.284C406.015 320.362 406.059 320.465 406.059 320.592L406.286 328.429C406.286 328.556 406.245 328.661 406.162 328.744C406.079 328.822 405.969 328.861 405.832 328.861ZM408 328.861C407.863 328.861 407.751 328.822 407.663 328.744C407.575 328.661 407.531 328.556 407.531 328.429V320.599C407.531 320.472 407.575 320.37 407.663 320.292C407.751 320.208 407.863 320.167 408 320.167C408.142 320.167 408.256 320.208 408.344 320.292C408.432 320.37 408.476 320.472 408.476 320.599V328.429C408.476 328.556 408.432 328.661 408.344 328.744C408.256 328.822 408.142 328.861 408 328.861ZM410.175 328.861C410.034 328.861 409.921 328.822 409.838 328.744C409.755 328.661 409.716 328.556 409.721 328.429L409.941 320.599C409.946 320.467 409.99 320.362 410.073 320.284C410.156 320.206 410.263 320.167 410.395 320.167C410.537 320.167 410.649 320.208 410.732 320.292C410.815 320.37 410.854 320.472 410.849 320.599L410.629 328.429C410.625 328.561 410.581 328.666 410.498 328.744C410.415 328.822 410.307 328.861 410.175 328.861ZM404.785 318.255V316.615C404.785 316.087 404.946 315.672 405.268 315.37C405.595 315.062 406.04 314.908 406.601 314.908H409.384C409.946 314.908 410.388 315.062 410.71 315.37C411.037 315.672 411.201 316.087 411.201 316.615V318.255H410.036V316.688C410.036 316.483 409.968 316.317 409.831 316.19C409.699 316.063 409.523 316 409.304 316H406.682C406.462 316 406.284 316.063 406.147 316.19C406.015 316.317 405.949 316.483 405.949 316.688V318.255H404.785ZM401.459 318.841C401.313 318.841 401.184 318.788 401.071 318.68C400.964 318.568 400.91 318.436 400.91 318.285C400.91 318.138 400.964 318.011 401.071 317.904C401.184 317.792 401.313 317.735 401.459 317.735H414.548C414.694 317.735 414.821 317.789 414.929 317.896C415.036 318.004 415.09 318.133 415.09 318.285C415.09 318.436 415.036 318.568 414.929 318.68C414.826 318.788 414.699 318.841 414.548 318.841H401.459ZM404.646 331.219C404.118 331.219 403.691 331.063 403.364 330.75C403.042 330.443 402.868 330.025 402.844 329.498L402.324 318.702H403.474L403.994 329.366C404.003 329.581 404.079 329.759 404.221 329.901C404.362 330.042 404.538 330.113 404.748 330.113H411.245C411.459 330.113 411.638 330.042 411.779 329.901C411.921 329.764 411.997 329.586 412.006 329.366L412.497 318.702H413.676L413.164 329.491C413.139 330.018 412.963 330.438 412.636 330.75C412.309 331.063 411.884 331.219 411.362 331.219H404.646Z" fill="currentColor"/></svg>