<svg xmlns="http://www.w3.org/2000/svg" viewBox="841.162 673.681 25.666999999999916 29.062000000000012"><path d="M850.456 697.67C850.227 697.67 850.039 697.599 849.89 697.457C849.748 697.314 849.674 697.129 849.667 696.9L849.296 684.292C849.29 684.063 849.358 683.878 849.5 683.735C849.643 683.593 849.834 683.522 850.076 683.522C850.311 683.522 850.502 683.593 850.651 683.735C850.799 683.871 850.877 684.051 850.883 684.273L851.254 696.891C851.26 697.119 851.189 697.305 851.041 697.447C850.898 697.596 850.703 697.67 850.456 697.67ZM854 697.67C853.759 697.67 853.564 697.599 853.416 697.457C853.267 697.314 853.193 697.129 853.193 696.9V684.283C853.193 684.054 853.267 683.871 853.416 683.735C853.564 683.593 853.759 683.522 854 683.522C854.235 683.522 854.427 683.593 854.575 683.735C854.724 683.871 854.798 684.054 854.798 684.283V696.9C854.798 697.129 854.724 697.314 854.575 697.457C854.427 697.599 854.235 697.67 854 697.67ZM857.525 697.67C857.284 697.67 857.089 697.596 856.941 697.447C856.799 697.305 856.731 697.119 856.737 696.891L857.108 684.283C857.114 684.054 857.191 683.871 857.34 683.735C857.488 683.599 857.68 683.531 857.915 683.531C858.15 683.531 858.339 683.602 858.481 683.745C858.629 683.881 858.701 684.063 858.694 684.292L858.323 696.909C858.317 697.138 858.24 697.32 858.091 697.457C857.949 697.599 857.76 697.67 857.525 697.67ZM848.536 680.108V677.566C848.536 676.657 848.811 675.949 849.361 675.441C849.912 674.934 850.685 674.681 851.681 674.681H856.292C857.287 674.681 858.057 674.934 858.602 675.441C859.152 675.949 859.427 676.657 859.427 677.566V680.108H857.266V677.659C857.266 677.343 857.164 677.093 856.959 676.907C856.762 676.715 856.489 676.62 856.143 676.62H851.829C851.483 676.62 851.208 676.715 851.003 676.907C850.799 677.093 850.697 677.343 850.697 677.659V680.108H848.536ZM843.21 681.453C842.92 681.453 842.672 681.354 842.468 681.156C842.264 680.958 842.162 680.714 842.162 680.423C842.162 680.133 842.264 679.888 842.468 679.69C842.672 679.493 842.92 679.394 843.21 679.394H864.78C865.071 679.394 865.318 679.493 865.522 679.69C865.727 679.882 865.829 680.126 865.829 680.423C865.829 680.714 865.727 680.958 865.522 681.156C865.325 681.354 865.077 681.453 864.78 681.453H843.21ZM848.517 701.743C847.905 701.743 847.373 701.625 846.921 701.39C846.47 701.155 846.114 700.818 845.854 700.379C845.595 699.946 845.449 699.426 845.418 698.82L844.574 681.24H846.717L847.552 698.421C847.565 698.786 847.682 699.083 847.905 699.312C848.134 699.541 848.418 699.655 848.758 699.655H859.223C859.569 699.655 859.854 699.541 860.077 699.312C860.299 699.083 860.42 698.786 860.438 698.421L861.236 681.23H863.417L862.572 698.82C862.541 699.42 862.396 699.937 862.136 700.37C861.876 700.809 861.521 701.146 861.069 701.381C860.618 701.622 860.089 701.743 859.483 701.743H848.517Z" fill="currentColor"/></svg>