<svg xmlns="http://www.w3.org/2000/svg" viewBox="39.4243 305.302 27.151399999999995 26.902999999999963"><path d="M55.5981 313.208H57.6318C58.224 313.208 58.7054 313.264 59.0762 313.375C59.4469 313.485 59.7817 313.676 60.0806 313.947C60.3849 314.218 60.7308 314.592 61.1182 315.068L65.0195 319.949C65.1634 320.131 65.2741 320.308 65.3516 320.48C65.4346 320.646 65.4927 320.834 65.5259 321.044C65.5591 321.249 65.5757 321.498 65.5757 321.792V328C65.5757 329.057 65.3045 329.854 64.7622 330.391C64.2199 330.933 63.4119 331.205 62.3384 331.205H43.6533C42.5853 331.205 41.7801 330.936 41.2378 330.399C40.6955 329.863 40.4243 329.063 40.4243 328V321.792C40.4243 321.498 40.4409 321.249 40.4741 321.044C40.5073 320.834 40.5627 320.646 40.6401 320.48C40.7231 320.308 40.8338 320.131 40.9722 319.949L44.8818 315.068C45.2637 314.592 45.604 314.218 45.9028 313.947C46.2072 313.676 46.5448 313.485 46.9155 313.375C47.2863 313.264 47.7705 313.208 48.3682 313.208H50.4019V314.503H48.2437C47.8397 314.503 47.4827 314.575 47.1729 314.719C46.863 314.863 46.578 315.101 46.3179 315.433L42.1592 320.704C42.0817 320.804 42.0596 320.906 42.0928 321.011C42.1315 321.116 42.2256 321.169 42.375 321.169H49.6631C49.9066 321.169 50.0892 321.249 50.2109 321.41C50.3327 321.565 50.3936 321.742 50.3936 321.941V321.991C50.3936 322.444 50.5015 322.876 50.7173 323.286C50.9386 323.69 51.243 324.022 51.6304 324.282C52.0233 324.536 52.4798 324.664 53 324.664C53.5202 324.664 53.974 324.536 54.3613 324.282C54.7542 324.022 55.0586 323.69 55.2744 323.286C55.4958 322.876 55.6064 322.444 55.6064 321.991V321.941C55.6064 321.742 55.6646 321.565 55.7808 321.41C55.9025 321.249 56.0879 321.169 56.3369 321.169H63.625C63.7799 321.169 63.874 321.116 63.9072 321.011C63.9404 320.906 63.9183 320.804 63.8408 320.704L59.6821 315.433C59.4165 315.101 59.1287 314.863 58.8188 314.719C58.5145 314.575 58.1603 314.503 57.7563 314.503H55.5981V313.208ZM43.6865 329.727H62.3135C62.8835 329.727 63.3234 329.575 63.6333 329.271C63.9432 328.972 64.0981 328.523 64.0981 327.926V322.514H57.001C56.9346 323.189 56.7188 323.792 56.3535 324.323C55.9883 324.849 55.5151 325.264 54.9341 325.568C54.353 325.873 53.7083 326.025 53 326.025C52.2861 326.025 51.6387 325.873 51.0576 325.568C50.4821 325.264 50.0117 324.849 49.6465 324.323C49.2812 323.792 49.0627 323.189 48.9907 322.514H41.8936V327.926C41.8936 328.523 42.0457 328.972 42.3501 329.271C42.66 329.575 43.1055 329.727 43.6865 329.727ZM49.356 311.133C49.1623 311.133 49.0046 311.072 48.8828 310.951C48.7611 310.823 48.7002 310.668 48.7002 310.486C48.7002 310.386 48.7168 310.298 48.75 310.22C48.7887 310.143 48.8441 310.071 48.916 310.004L52.4688 306.543C52.5628 306.454 52.6514 306.394 52.7344 306.36C52.8174 306.322 52.9059 306.302 53 306.302C53.0941 306.302 53.1826 306.322 53.2656 306.36C53.3486 306.394 53.4344 306.454 53.5229 306.543L57.0757 310.004C57.1476 310.071 57.2002 310.143 57.2334 310.22C57.2721 310.298 57.2915 310.386 57.2915 310.486C57.2915 310.668 57.2279 310.823 57.1006 310.951C56.9733 311.072 56.8156 311.133 56.6274 311.133C56.4282 311.133 56.2622 311.059 56.1294 310.909L54.3281 309.017L53 307.614L51.6636 309.017L49.8623 310.909C49.7295 311.059 49.5607 311.133 49.356 311.133ZM53 320.92C52.8008 320.92 52.6292 320.851 52.4854 320.712C52.3415 320.569 52.2695 320.4 52.2695 320.206V309.905L52.3774 307.257C52.3885 307.085 52.4521 306.939 52.5684 306.817C52.6846 306.695 52.8285 306.634 53 306.634C53.166 306.634 53.3071 306.695 53.4233 306.817C53.5451 306.939 53.6115 307.085 53.6226 307.257L53.7222 309.905V320.206C53.7222 320.4 53.6502 320.569 53.5063 320.712C53.3625 320.851 53.1937 320.92 53 320.92Z" fill="currentColor"/></svg>