<svg xmlns="http://www.w3.org/2000/svg" viewBox="39.2583 261.584 27.475100000000005 27.011000000000024"><path d="M55.9053 268.918H57.6235C58.1935 268.918 58.6722 268.976 59.0596 269.092C59.4469 269.208 59.8066 269.408 60.1387 269.69C60.4707 269.972 60.8387 270.357 61.2427 270.844L65.0112 275.451C65.2049 275.683 65.3543 275.91 65.4595 276.131C65.5646 276.347 65.6366 276.593 65.6753 276.87C65.714 277.141 65.7334 277.476 65.7334 277.875V284.117C65.7334 285.251 65.4346 286.114 64.8369 286.707C64.2448 287.299 63.3787 287.595 62.2388 287.595H43.7529C42.613 287.595 41.7441 287.299 41.1465 286.707C40.5544 286.12 40.2583 285.257 40.2583 284.117V277.875C40.2583 277.476 40.2777 277.141 40.3164 276.87C40.3607 276.593 40.4326 276.347 40.5322 276.131C40.6374 275.91 40.784 275.683 40.9722 275.451L44.7407 270.852C45.1447 270.365 45.5127 269.98 45.8447 269.698C46.1768 269.416 46.5365 269.217 46.9238 269.101C47.3167 268.979 47.7982 268.918 48.3682 268.918H50.0864V270.645H48.3018C47.9421 270.645 47.6239 270.714 47.3472 270.852C47.0705 270.985 46.8187 271.198 46.5918 271.491L42.6074 276.438C42.5244 276.544 42.5023 276.652 42.541 276.762C42.5798 276.873 42.6766 276.928 42.8315 276.928H49.8623C50.1224 276.928 50.3133 277.006 50.4351 277.161C50.5623 277.31 50.626 277.482 50.626 277.675V277.717C50.626 278.121 50.7228 278.508 50.9165 278.879C51.1102 279.25 51.3841 279.554 51.7383 279.792C52.0924 280.024 52.513 280.141 53 280.141C53.4814 280.141 53.8993 280.024 54.2534 279.792C54.6076 279.554 54.8815 279.25 55.0752 278.879C55.2689 278.508 55.3657 278.121 55.3657 277.717V277.675C55.3657 277.482 55.4266 277.31 55.5483 277.161C55.6701 277.006 55.8638 276.928 56.1294 276.928H63.1602C63.3206 276.928 63.4175 276.873 63.4507 276.762C63.4839 276.652 63.4618 276.544 63.3843 276.438L59.3999 271.491C59.1675 271.198 58.9129 270.985 58.6362 270.852C58.3651 270.714 58.0496 270.645 57.6899 270.645H55.9053V268.918ZM43.8857 285.495H62.106C62.6095 285.495 62.9969 285.365 63.2681 285.104C63.5392 284.844 63.6748 284.449 63.6748 283.917V278.763H57.1172C57.0065 279.394 56.7603 279.958 56.3784 280.456C55.9966 280.954 55.5151 281.347 54.9341 281.635C54.353 281.923 53.7083 282.066 53 282.066C52.2861 282.066 51.6387 281.923 51.0576 281.635C50.4766 281.347 49.9951 280.954 49.6133 280.456C49.2314 279.958 48.9852 279.394 48.8745 278.763H42.3169V283.917C42.3169 284.449 42.4497 284.844 42.7153 285.104C42.981 285.365 43.3711 285.495 43.8857 285.495ZM49.4473 271.956C49.6963 271.956 49.9038 272.047 50.0698 272.23L51.564 273.807L53 275.583L54.4277 273.807L55.9136 272.23C56.0796 272.047 56.2871 271.956 56.5361 271.956C56.7575 271.956 56.9484 272.031 57.1089 272.18C57.2749 272.33 57.3579 272.523 57.3579 272.761C57.3579 272.877 57.3358 272.983 57.2915 273.077C57.2472 273.171 57.1836 273.259 57.1006 273.342L53.7056 276.629C53.5894 276.746 53.4731 276.829 53.3569 276.878C53.2407 276.923 53.1217 276.945 53 276.945C52.8727 276.945 52.751 276.923 52.6348 276.878C52.5241 276.829 52.4051 276.746 52.2778 276.629L48.8911 273.342C48.8026 273.259 48.7362 273.171 48.6919 273.077C48.6476 272.983 48.6255 272.877 48.6255 272.761C48.6255 272.523 48.7057 272.33 48.8662 272.18C49.0267 272.031 49.2204 271.956 49.4473 271.956ZM53 262.584C53.2656 262.584 53.4925 262.681 53.6807 262.875C53.8688 263.063 53.9629 263.287 53.9629 263.547V272.919L53.7886 275.625C53.7664 275.835 53.6807 276.021 53.5312 276.181C53.3874 276.336 53.2103 276.414 53 276.414C52.7786 276.414 52.596 276.336 52.4521 276.181C52.3083 276.021 52.2253 275.835 52.2031 275.625L52.0205 272.919V263.547C52.0205 263.287 52.1146 263.063 52.3027 262.875C52.4964 262.681 52.7288 262.584 53 262.584Z" fill="currentColor"/></svg>