<svg xmlns="http://www.w3.org/2000/svg" viewBox="39.2583 303.854 27.475100000000005 27.741000000000042"><path d="M55.9053 311.918H57.6235C58.1935 311.918 58.6722 311.976 59.0596 312.092C59.4469 312.208 59.8066 312.408 60.1387 312.69C60.4707 312.972 60.8387 313.357 61.2427 313.844L65.0112 318.451C65.2049 318.683 65.3543 318.91 65.4595 319.131C65.5646 319.347 65.6366 319.593 65.6753 319.87C65.714 320.141 65.7334 320.476 65.7334 320.875V327.117C65.7334 328.251 65.4346 329.114 64.8369 329.707C64.2448 330.299 63.3787 330.595 62.2388 330.595H43.7529C42.613 330.595 41.7441 330.299 41.1465 329.707C40.5544 329.12 40.2583 328.257 40.2583 327.117V320.875C40.2583 320.476 40.2777 320.141 40.3164 319.87C40.3607 319.593 40.4326 319.347 40.5322 319.131C40.6374 318.91 40.784 318.683 40.9722 318.451L44.7407 313.852C45.1447 313.365 45.5127 312.98 45.8447 312.698C46.1768 312.416 46.5365 312.217 46.9238 312.101C47.3167 311.979 47.7982 311.918 48.3682 311.918H50.0864V313.645H48.3018C47.9421 313.645 47.6239 313.714 47.3472 313.852C47.0705 313.985 46.8187 314.198 46.5918 314.491L42.6074 319.438C42.5244 319.544 42.5023 319.652 42.541 319.762C42.5798 319.873 42.6766 319.928 42.8315 319.928H49.8623C50.1224 319.928 50.3133 320.006 50.4351 320.161C50.5623 320.31 50.626 320.482 50.626 320.675V320.717C50.626 321.121 50.7228 321.508 50.9165 321.879C51.1102 322.25 51.3841 322.554 51.7383 322.792C52.0924 323.024 52.513 323.141 53 323.141C53.4814 323.141 53.8993 323.024 54.2534 322.792C54.6076 322.554 54.8815 322.25 55.0752 321.879C55.2689 321.508 55.3657 321.121 55.3657 320.717V320.675C55.3657 320.482 55.4266 320.31 55.5483 320.161C55.6701 320.006 55.8638 319.928 56.1294 319.928H63.1602C63.3206 319.928 63.4175 319.873 63.4507 319.762C63.4839 319.652 63.4618 319.544 63.3843 319.438L59.3999 314.491C59.1675 314.198 58.9129 313.985 58.6362 313.852C58.3651 313.714 58.0496 313.645 57.6899 313.645H55.9053V311.918ZM43.8857 328.495H62.106C62.6095 328.495 62.9969 328.365 63.2681 328.104C63.5392 327.844 63.6748 327.449 63.6748 326.917V321.763H57.1172C57.0065 322.394 56.7603 322.958 56.3784 323.456C55.9966 323.954 55.5151 324.347 54.9341 324.635C54.353 324.923 53.7083 325.066 53 325.066C52.2861 325.066 51.6387 324.923 51.0576 324.635C50.4766 324.347 49.9951 323.954 49.6133 323.456C49.2314 322.958 48.9852 322.394 48.8745 321.763H42.3169V326.917C42.3169 327.449 42.4497 327.844 42.7153 328.104C42.981 328.365 43.3711 328.495 43.8857 328.495ZM49.2979 310.05C49.0599 310.05 48.8579 309.973 48.6919 309.818C48.5259 309.657 48.4429 309.458 48.4429 309.22C48.4429 309.093 48.465 308.982 48.5093 308.888C48.5591 308.789 48.6283 308.697 48.7168 308.614L52.2446 305.186C52.3719 305.064 52.4964 304.979 52.6182 304.929C52.7399 304.879 52.8672 304.854 53 304.854C53.1273 304.854 53.2518 304.879 53.3735 304.929C53.4953 304.979 53.617 305.064 53.7388 305.186L57.2749 308.614C57.3634 308.697 57.4299 308.789 57.4741 308.888C57.5184 308.982 57.5405 309.093 57.5405 309.22C57.5405 309.458 57.4548 309.657 57.2832 309.818C57.1172 309.973 56.918 310.05 56.6855 310.05C56.4255 310.05 56.2096 309.956 56.0381 309.768L54.4692 308.108L53 306.249L51.5142 308.108L49.9453 309.768C49.7738 309.956 49.5579 310.05 49.2979 310.05ZM53 319.331C52.7288 319.331 52.4964 319.236 52.3027 319.048C52.1146 318.855 52.0205 318.631 52.0205 318.376V308.946L52.2031 305.941C52.2197 305.72 52.3 305.532 52.4438 305.377C52.5933 305.222 52.7786 305.145 53 305.145C53.2103 305.145 53.3901 305.222 53.5396 305.377C53.689 305.532 53.772 305.72 53.7886 305.941L53.9629 308.946V318.376C53.9629 318.631 53.8688 318.855 53.6807 319.048C53.4925 319.236 53.2656 319.331 53 319.331Z" fill="currentColor"/></svg>