<svg xmlns="http://www.w3.org/2000/svg" viewBox="39.4243 261.875 27.151399999999995 26.329999999999984"><path d="M55.5981 269.208H57.6318C58.224 269.208 58.7054 269.264 59.0762 269.375C59.4469 269.485 59.7817 269.676 60.0806 269.947C60.3849 270.218 60.7308 270.592 61.1182 271.068L65.0195 275.949C65.1634 276.131 65.2741 276.308 65.3516 276.48C65.4346 276.646 65.4927 276.834 65.5259 277.044C65.5591 277.249 65.5757 277.498 65.5757 277.792V284C65.5757 285.057 65.3045 285.854 64.7622 286.391C64.2199 286.933 63.4119 287.205 62.3384 287.205H43.6533C42.5853 287.205 41.7801 286.936 41.2378 286.399C40.6955 285.863 40.4243 285.063 40.4243 284V277.792C40.4243 277.498 40.4409 277.249 40.4741 277.044C40.5073 276.834 40.5627 276.646 40.6401 276.48C40.7231 276.308 40.8338 276.131 40.9722 275.949L44.8818 271.068C45.2637 270.592 45.604 270.218 45.9028 269.947C46.2072 269.676 46.5448 269.485 46.9155 269.375C47.2863 269.264 47.7705 269.208 48.3682 269.208H50.4019V270.503H48.2437C47.8397 270.503 47.4827 270.575 47.1729 270.719C46.863 270.863 46.578 271.101 46.3179 271.433L42.1592 276.704C42.0817 276.804 42.0596 276.906 42.0928 277.011C42.1315 277.116 42.2256 277.169 42.375 277.169H49.6631C49.9066 277.169 50.0892 277.249 50.2109 277.41C50.3327 277.565 50.3936 277.742 50.3936 277.941V277.991C50.3936 278.444 50.5015 278.876 50.7173 279.286C50.9386 279.69 51.243 280.022 51.6304 280.282C52.0233 280.536 52.4798 280.664 53 280.664C53.5202 280.664 53.974 280.536 54.3613 280.282C54.7542 280.022 55.0586 279.69 55.2744 279.286C55.4958 278.876 55.6064 278.444 55.6064 277.991V277.941C55.6064 277.742 55.6646 277.565 55.7808 277.41C55.9025 277.249 56.0879 277.169 56.3369 277.169H63.625C63.7799 277.169 63.874 277.116 63.9072 277.011C63.9404 276.906 63.9183 276.804 63.8408 276.704L59.6821 271.433C59.4165 271.101 59.1287 270.863 58.8188 270.719C58.5145 270.575 58.1603 270.503 57.7563 270.503H55.5981V269.208ZM43.6865 285.727H62.3135C62.8835 285.727 63.3234 285.575 63.6333 285.271C63.9432 284.972 64.0981 284.523 64.0981 283.926V278.514H57.001C56.9346 279.189 56.7188 279.792 56.3535 280.323C55.9883 280.849 55.5151 281.264 54.9341 281.568C54.353 281.873 53.7083 282.025 53 282.025C52.2861 282.025 51.6387 281.873 51.0576 281.568C50.4821 281.264 50.0117 280.849 49.6465 280.323C49.2812 279.792 49.0627 279.189 48.9907 278.514H41.8936V283.926C41.8936 284.523 42.0457 284.972 42.3501 285.271C42.66 285.575 43.1055 285.727 43.6865 285.727ZM49.356 272.139C49.5607 272.139 49.7295 272.213 49.8623 272.363L51.6636 274.255L53 275.65L54.3281 274.255L56.1294 272.363C56.2622 272.213 56.4282 272.139 56.6274 272.139C56.8156 272.139 56.9733 272.2 57.1006 272.321C57.2279 272.443 57.2915 272.598 57.2915 272.786C57.2915 272.88 57.2721 272.966 57.2334 273.043C57.2002 273.121 57.1476 273.196 57.0757 273.268L53.5229 276.721C53.4344 276.809 53.3486 276.873 53.2656 276.912C53.1826 276.945 53.0941 276.961 53 276.961C52.9059 276.961 52.8174 276.945 52.7344 276.912C52.6514 276.873 52.5628 276.809 52.4688 276.721L48.916 273.268C48.8441 273.196 48.7887 273.121 48.75 273.043C48.7168 272.966 48.7002 272.88 48.7002 272.786C48.7002 272.598 48.7611 272.443 48.8828 272.321C49.0046 272.2 49.1623 272.139 49.356 272.139ZM53 262.875C53.1937 262.875 53.3625 262.947 53.5063 263.091C53.6502 263.229 53.7222 263.395 53.7222 263.589V273.359L53.6226 276.015C53.6115 276.181 53.5451 276.328 53.4233 276.455C53.3071 276.577 53.166 276.638 53 276.638C52.8285 276.638 52.6846 276.577 52.5684 276.455C52.4521 276.328 52.3885 276.181 52.3774 276.015L52.2695 273.359V263.589C52.2695 263.395 52.3415 263.229 52.4854 263.091C52.6292 262.947 52.8008 262.875 53 262.875Z" fill="currentColor"/></svg>