<svg xmlns="http://www.w3.org/2000/svg" viewBox="1068.24 731.203 25.660000000000082 28.168000000000006"><path d="M1078.77 747.919C1078.54 747.919 1078.34 747.837 1078.17 747.672C1078 747.507 1077.92 747.314 1077.92 747.092V736.156L1077.98 734.556L1077.24 735.329L1075.72 736.962C1075.57 737.134 1075.37 737.22 1075.13 737.22C1074.9 737.22 1074.72 737.148 1074.57 737.005C1074.42 736.862 1074.35 736.683 1074.35 736.468C1074.35 736.353 1074.37 736.249 1074.42 736.156C1074.47 736.063 1074.53 735.977 1074.61 735.898L1078.14 732.482C1078.25 732.382 1078.36 732.311 1078.46 732.268C1078.56 732.225 1078.66 732.203 1078.77 732.203C1078.88 732.203 1078.99 732.225 1079.09 732.268C1079.19 732.311 1079.29 732.382 1079.39 732.482L1082.94 735.898C1083.1 736.07 1083.18 736.26 1083.18 736.468C1083.18 736.683 1083.11 736.862 1082.96 737.005C1082.81 737.148 1082.62 737.22 1082.4 737.22C1082.16 737.22 1081.97 737.134 1081.82 736.962L1080.29 735.329L1079.56 734.556L1079.63 736.156V747.092C1079.63 747.314 1079.54 747.507 1079.37 747.672C1079.2 747.837 1079 747.919 1078.77 747.919ZM1088.31 746.039C1088.16 746.018 1088.01 746.003 1087.87 745.996C1087.72 745.989 1087.58 745.985 1087.44 745.985C1087.29 745.985 1087.14 745.989 1087 745.996C1086.85 746.003 1086.71 746.018 1086.58 746.039V743.568C1086.58 742.688 1086.34 742.007 1085.86 741.527C1085.38 741.048 1084.69 740.808 1083.81 740.808H1081.64V739.078H1083.81C1085.25 739.078 1086.36 739.465 1087.14 740.238C1087.92 741.012 1088.31 742.122 1088.31 743.568V746.039ZM1073.73 756.33C1072.29 756.33 1071.18 755.94 1070.4 755.159C1069.63 754.386 1069.24 753.279 1069.24 751.84V743.568C1069.24 742.122 1069.63 741.012 1070.4 740.238C1071.18 739.465 1072.29 739.078 1073.73 739.078H1075.9V740.808H1073.73C1072.85 740.808 1072.17 741.048 1071.69 741.527C1071.21 742.007 1070.97 742.688 1070.97 743.568V751.84C1070.97 752.721 1071.21 753.401 1071.69 753.881C1072.17 754.361 1072.85 754.601 1073.73 754.601H1080.74C1080.82 754.909 1080.91 755.206 1081.02 755.492C1081.14 755.786 1081.27 756.065 1081.42 756.33H1073.73ZM1087.45 758.371C1086.7 758.371 1086 758.228 1085.34 757.941C1084.68 757.662 1084.1 757.272 1083.6 756.771C1083.1 756.269 1082.71 755.689 1082.42 755.03C1082.13 754.371 1081.99 753.666 1081.99 752.914C1081.99 752.162 1082.13 751.46 1082.42 750.809C1082.71 750.15 1083.1 749.57 1083.6 749.068C1084.1 748.56 1084.68 748.166 1085.34 747.887C1086 747.6 1086.7 747.457 1087.45 747.457C1088.2 747.457 1088.9 747.6 1089.56 747.887C1090.22 748.166 1090.8 748.556 1091.3 749.058C1091.81 749.559 1092.2 750.139 1092.47 750.798C1092.76 751.457 1092.9 752.162 1092.9 752.914C1092.9 753.659 1092.76 754.361 1092.47 755.02C1092.19 755.678 1091.79 756.258 1091.28 756.76C1090.78 757.261 1090.2 757.655 1089.54 757.941C1088.88 758.228 1088.18 758.371 1087.45 758.371ZM1084.89 753.752H1087.5C1087.69 753.752 1087.84 753.688 1087.96 753.559C1088.09 753.43 1088.16 753.272 1088.16 753.086V749.734C1088.16 749.555 1088.09 749.405 1087.96 749.283C1087.83 749.154 1087.68 749.09 1087.5 749.09C1087.31 749.09 1087.16 749.154 1087.03 749.283C1086.9 749.405 1086.83 749.555 1086.83 749.734V752.431H1084.89C1084.71 752.431 1084.55 752.495 1084.42 752.624C1084.29 752.753 1084.22 752.907 1084.22 753.086C1084.22 753.265 1084.29 753.419 1084.42 753.548C1084.55 753.684 1084.7 753.752 1084.89 753.752Z" fill="currentColor"/></svg>