<svg xmlns="http://www.w3.org/2000/svg" viewBox="127.45599999999999 52.4819 19.072000000000003 19.077499999999993"><path d="M143.749 53.7974C143.881 53.6646 144.036 53.576 144.213 53.5317C144.39 53.4819 144.568 53.4819 144.745 53.5317C144.922 53.576 145.077 53.6646 145.209 53.7974C145.348 53.9302 145.439 54.0879 145.483 54.2705C145.528 54.4476 145.528 54.6247 145.483 54.8018C145.439 54.9788 145.351 55.1338 145.218 55.2666L130.235 70.2578C130.108 70.3851 129.955 70.4681 129.778 70.5068C129.601 70.5511 129.421 70.5511 129.239 70.5068C129.062 70.4681 128.904 70.3823 128.766 70.2495C128.633 70.1167 128.544 69.959 128.5 69.7764C128.456 69.5993 128.456 69.4222 128.5 69.2451C128.544 69.068 128.63 68.9159 128.757 68.7886L143.749 53.7974ZM145.218 68.7803C145.351 68.9131 145.436 69.0653 145.475 69.2368C145.519 69.4139 145.519 69.591 145.475 69.7681C145.436 69.9507 145.348 70.1112 145.209 70.2495C145.077 70.3823 144.922 70.4709 144.745 70.5151C144.568 70.5594 144.39 70.5594 144.213 70.5151C144.036 70.4709 143.881 70.3823 143.749 70.2495L128.757 55.2583C128.636 55.1366 128.55 54.9871 128.5 54.8101C128.456 54.633 128.456 54.4531 128.5 54.2705C128.55 54.0879 128.638 53.9302 128.766 53.7974C128.898 53.6646 129.056 53.576 129.239 53.5317C129.421 53.4875 129.598 53.4875 129.77 53.5317C129.947 53.576 130.102 53.6618 130.235 53.7891L145.218 68.7803Z" fill="currentColor"/></svg>